<svg xmlns="http://www.w3.org/2000/svg" xmlns:xlink="http://www.w3.org/1999/xlink" version="1.1" width="256" height="256" viewBox="0 0 256 256" xml:space="preserve">

<defs>
</defs>
<g style="stroke: none; stroke-width: 0; stroke-dasharray: none; stroke-linecap: butt; stroke-linejoin: miter; stroke-miterlimit: 10; fill: none; fill-rule: nonzero; opacity: 1;" transform="translate(1.4065934065934016 1.4065934065934016) scale(2.81 2.81)" >
	<path d="M 45 86.795 C 20.187 86.795 0 68.046 0 45 S 20.187 3.205 45 3.205 c 24.813 0 45 18.749 45 41.795 v 0.124 C 89.987 52.7 83.816 58.86 76.244 58.86 H 65.595 v -4 h 10.649 c 5.37 0 9.747 -4.369 9.756 -9.74 V 45 C 86 24.16 67.607 7.205 45 7.205 S 4 24.16 4 45 c 0 20.84 18.393 37.795 41 37.795 c 3.679 0 6.87 -0.32 9.757 -0.98 c 1.699 -0.388 1.615 -1.896 1.58 -2.195 c -0.033 -0.296 -0.29 -1.771 -2.014 -1.771 c -0.004 0 -0.008 0 -0.012 0 h -0.219 c -3.165 0 -6.222 -1.325 -8.387 -3.635 c -2.196 -2.343 -3.291 -5.404 -3.082 -8.62 c 0.229 -3.548 2.114 -6.735 5.17 -8.748 l 2.199 3.342 c -1.999 1.315 -3.23 3.38 -3.378 5.664 c -0.137 2.102 0.577 4.1 2.009 5.627 c 1.433 1.528 3.375 2.37 5.469 2.37 h 0.211 c 0.009 0 0.018 0 0.026 0 c 3.161 0 5.622 2.182 5.981 5.314 c 0.36 3.147 -1.557 5.842 -4.664 6.552 C 52.465 86.441 48.982 86.795 45 86.795 z" style="stroke: none; stroke-width: 1; stroke-dasharray: none; stroke-linecap: butt; stroke-linejoin: miter; stroke-miterlimit: 10; fill: rgb(0,0,0); fill-rule: nonzero; opacity: 1;" transform=" matrix(1 0 0 1 0 0) " stroke-linecap="round" />
	<path d="M 45 31 c -5.036 0 -9.133 -4.097 -9.133 -9.133 c 0 -5.036 4.097 -9.133 9.133 -9.133 s 9.133 4.097 9.133 9.133 C 54.133 26.903 50.036 31 45 31 z M 45 16.734 c -2.831 0 -5.133 2.303 -5.133 5.133 C 39.867 24.698 42.169 27 45 27 c 2.83 0 5.133 -2.303 5.133 -5.133 C 50.133 19.037 47.83 16.734 45 16.734 z" style="stroke: none; stroke-width: 1; stroke-dasharray: none; stroke-linecap: butt; stroke-linejoin: miter; stroke-miterlimit: 10; fill: rgb(0,0,0); fill-rule: nonzero; opacity: 1;" transform=" matrix(1 0 0 1 0 0) " stroke-linecap="round" />
	<path d="M 68.206 43.57 c -5.036 0 -9.133 -4.097 -9.133 -9.133 c 0 -5.036 4.097 -9.133 9.133 -9.133 s 9.133 4.097 9.133 9.133 C 77.339 39.473 73.242 43.57 68.206 43.57 z M 68.206 29.304 c -2.83 0 -5.133 2.303 -5.133 5.133 c 0 2.831 2.303 5.133 5.133 5.133 s 5.133 -2.303 5.133 -5.133 C 73.339 31.607 71.036 29.304 68.206 29.304 z" style="stroke: none; stroke-width: 1; stroke-dasharray: none; stroke-linecap: butt; stroke-linejoin: miter; stroke-miterlimit: 10; fill: rgb(0,0,0); fill-rule: nonzero; opacity: 1;" transform=" matrix(1 0 0 1 0 0) " stroke-linecap="round" />
	<path d="M 22.761 43.57 c -5.036 0 -9.133 -4.097 -9.133 -9.133 c 0 -5.036 4.097 -9.133 9.133 -9.133 c 5.036 0 9.133 4.097 9.133 9.133 C 31.894 39.473 27.797 43.57 22.761 43.57 z M 22.761 29.304 c -2.83 0 -5.133 2.303 -5.133 5.133 c 0 2.831 2.303 5.133 5.133 5.133 c 2.831 0 5.133 -2.303 5.133 -5.133 C 27.894 31.607 25.591 29.304 22.761 29.304 z" style="stroke: none; stroke-width: 1; stroke-dasharray: none; stroke-linecap: butt; stroke-linejoin: miter; stroke-miterlimit: 10; fill: rgb(0,0,0); fill-rule: nonzero; opacity: 1;" transform=" matrix(1 0 0 1 0 0) " stroke-linecap="round" />
	<path d="M 24.695 68.71 c -5.036 0 -9.133 -4.097 -9.133 -9.133 s 4.097 -9.133 9.133 -9.133 c 5.036 0 9.133 4.097 9.133 9.133 S 29.73 68.71 24.695 68.71 z M 24.695 54.444 c -2.831 0 -5.133 2.303 -5.133 5.133 s 2.303 5.133 5.133 5.133 c 2.83 0 5.133 -2.303 5.133 -5.133 S 27.525 54.444 24.695 54.444 z" style="stroke: none; stroke-width: 1; stroke-dasharray: none; stroke-linecap: butt; stroke-linejoin: miter; stroke-miterlimit: 10; fill: rgb(0,0,0); fill-rule: nonzero; opacity: 1;" transform=" matrix(1 0 0 1 0 0) " stroke-linecap="round" />
	<path d="M 55.406 63.368 c -0.087 0 -0.175 -0.001 -0.262 -0.003 c -2.687 -0.071 -5.378 -1.252 -7.578 -3.326 c -7.765 -7.317 -9.115 -15.218 -9.455 -20.525 l -0.137 -2.138 l 2.142 0.01 c 5.318 0.025 13.286 0.905 21.049 8.223 c 2.2 2.074 3.539 4.69 3.769 7.367 c 0.235 2.737 -0.682 5.356 -2.584 7.374 C 60.511 62.303 58.053 63.368 55.406 63.368 z M 42.309 41.461 c 0.562 4.462 2.265 10.262 8.002 15.668 c 1.483 1.397 3.237 2.192 4.939 2.237 c 1.612 0.065 3.064 -0.565 4.189 -1.76 c 1.127 -1.195 1.648 -2.678 1.51 -4.288 c -0.146 -1.696 -1.043 -3.4 -2.526 -4.798 C 52.687 43.114 46.797 41.758 42.309 41.461 z" style="stroke: none; stroke-width: 1; stroke-dasharray: none; stroke-linecap: butt; stroke-linejoin: miter; stroke-miterlimit: 10; fill: rgb(0,0,0); fill-rule: nonzero; opacity: 1;" transform=" matrix(1 0 0 1 0 0) " stroke-linecap="round" />
	<path d="M 83.231 86.795 c -1.73 0 -3.369 -0.649 -4.634 -1.842 L 51.973 59.862 l 4.172 -0.552 c 1.262 -0.167 2.401 -0.757 3.296 -1.705 l 0 0 c 0.894 -0.948 1.414 -2.12 1.506 -3.391 l 0.305 -4.197 l 26.625 25.092 c 2.713 2.559 2.84 6.848 0.282 9.562 c -1.239 1.314 -2.916 2.067 -4.722 2.121 C 83.368 86.794 83.3 86.795 83.231 86.795 z M 60.167 62.088 l 21.175 19.955 c 1.107 1.044 2.861 0.991 3.906 -0.116 c 1.045 -1.108 0.993 -2.861 -0.116 -3.907 L 63.958 58.065 c -0.414 0.822 -0.952 1.589 -1.607 2.284 l 0 0 C 61.695 61.044 60.963 61.626 60.167 62.088 z" style="stroke: none; stroke-width: 1; stroke-dasharray: none; stroke-linecap: butt; stroke-linejoin: miter; stroke-miterlimit: 10; fill: rgb(0,0,0); fill-rule: nonzero; opacity: 1;" transform=" matrix(1 0 0 1 0 0) " stroke-linecap="round" />
</g>
</svg>