<?xml version="1.0" ?><!-- Uploaded to: SVG Repo, www.svgrepo.com, Generator: SVG Repo Mixer Tools -->
<svg fill="#000000" width="800px" height="800px" viewBox="0 0 100 100" data-name="Layer 1" id="Layer_1" xmlns="http://www.w3.org/2000/svg"><title/><path d="M51.01178,65.00494Q50.50631,64.99972,50,65q-.50684,0-1.01172.00494a1,1,0,1,0,.02057,1.99988Q49.5025,66.99978,50,67q.498,0,.99121.00482a1,1,0,0,0,.02057-1.99988Z"/><path d="M59.72583,65.45813q-1.07574-.10354-2.175-.18445a1,1,0,1,0-.1466,1.99463q1.07656.07909,2.13006.1806a1,1,0,0,0,.19153-1.99078Z"/><path d="M76.845,69.0274q-1.01184-.363-2.09039-.69744a1,1,0,1,0-.59247,1.91021q1.03821.322,2.00757.6698A1,1,0,1,0,76.845,69.0274Z"/><path d="M68.37372,66.72217q-1.05671-.21249-2.15131-.40076a1,1,0,1,0-.339,1.97107q1.06723.18346,2.09607.39044a1,1,0,0,0,.39423-1.96075Z"/><path d="M88.43765,77.83892,50.89,5.54a1.00346,1.00346,0,0,0-1.78,0L11.60988,77.7474A6.48166,6.48166,0,0,0,11,80a6.77383,6.77383,0,0,0,.9,3.31,13.82875,13.82875,0,0,0,5.08,4.8,45.66375,45.66375,0,0,0,13.9,5.01A93.15882,93.15882,0,0,0,50,95c10.59,0,20.19-1.58,27.22-4.16a27.51221,27.51221,0,0,0,8.45-4.64,10.81471,10.81471,0,0,0,2.43-2.89A6.77383,6.77383,0,0,0,89,80,6.00292,6.00292,0,0,0,88.43765,77.83892ZM86.35,82.34a11.82379,11.82379,0,0,1-4.37,4.06,43.67639,43.67639,0,0,1-13.27,4.77A91.8529,91.8529,0,0,1,50,93c-10.39,0-19.8-1.56-26.52-4.04A25.76211,25.76211,0,0,1,15.64,84.7a9.05251,9.05251,0,0,1-1.99-2.36A4.73886,4.73886,0,0,1,13,80a3.41991,3.41991,0,0,1,.07-.71s1.64352-3.19043,1.935-3.73782S17.5,73.9,18.12,73.53a.99556.99556,0,1,0-1.02-1.71c-.08.04-.15.09-.23.13995L50,8.17,83.13,71.96c-.08-.05-.15-.1-.23-.15a1.00243,1.00243,0,0,0-1.03,1.72c.62.37,2.84,1.4713,3.13146,2.033L86.93,79.28A4.39135,4.39135,0,0,1,87,80,4.73886,4.73886,0,0,1,86.35,82.34Z"/><path d="M33.773,66.3222q-1.09423.18815-2.15125.40082a1,1,0,0,0,.39435,1.96076q1.02833-.20682,2.096-.39057a1,1,0,0,0-.33905-1.971Z"/><path d="M25.24115,68.33124q-1.07785.33444-2.09027.69769a1,1,0,1,0,.67547,1.88245q.96855-.34754,2.00745-.67a1,1,0,1,0-.59265-1.91015Z"/><path d="M42.44415,65.27405q-1.0989.08083-2.17486.18457a1,1,0,1,0,.19165,1.99078q1.053-.10144,2.12994-.18072a1,1,0,1,0-.14673-1.99463Z"/></svg>