<?xml version="1.0" standalone="no"?>
<!DOCTYPE svg PUBLIC "-//W3C//DTD SVG 20010904//EN"
 "http://www.w3.org/TR/2001/REC-SVG-20010904/DTD/svg10.dtd">
<svg version="1.0" xmlns="http://www.w3.org/2000/svg"
 width="512.000000pt" height="512.000000pt" viewBox="0 0 512.000000 512.000000"
 preserveAspectRatio="xMidYMid meet">

<g transform="translate(0.000000,512.000000) scale(0.100000,-0.100000)"
fill="#000000" stroke="none">
<path d="M2511 4674 c-17 -21 -21 -41 -21 -96 0 -60 3 -72 25 -93 13 -14 34
-25 45 -25 12 0 32 11 45 25 22 21 25 33 25 93 0 83 -23 122 -70 122 -19 0
-36 -9 -49 -26z"/>
<path d="M1962 4454 c-16 -11 -22 -25 -22 -53 0 -33 7 -45 54 -90 60 -56 93
-64 126 -31 36 36 26 77 -33 137 -58 57 -85 65 -125 37z"/>
<path d="M3033 4417 c-59 -60 -69 -101 -33 -137 34 -34 67 -26 127 33 44 45
53 60 53 90 0 26 -6 40 -22 51 -40 28 -67 20 -125 -37z"/>
<path d="M2473 4280 c-155 -33 -288 -152 -333 -298 -82 -263 80 -528 350 -574
265 -46 510 161 510 431 0 194 -109 353 -288 421 -61 23 -178 33 -239 20z
m223 -163 c52 -26 112 -85 137 -134 8 -15 20 -53 26 -83 57 -278 -287 -474
-499 -283 -70 63 -103 136 -103 227 0 139 84 252 223 297 49 16 162 4 216 -24z"/>
<path d="M1725 3890 c-9 -10 -17 -31 -17 -45 0 -50 26 -65 117 -65 92 0 115
13 115 67 0 49 -25 63 -117 63 -67 0 -83 -3 -98 -20z"/>
<path d="M3197 3892 c-22 -25 -21 -75 1 -95 14 -13 38 -17 99 -17 89 0 116 15
116 65 0 50 -27 65 -118 65 -67 0 -85 -3 -98 -18z"/>
<path d="M2000 3384 c-71 -66 -83 -126 -31 -153 38 -21 63 -12 118 42 59 60
69 101 33 137 -32 32 -65 25 -120 -26z"/>
<path d="M3000 3410 c-36 -36 -26 -77 33 -137 58 -57 85 -65 125 -37 16 11 22
25 22 51 0 30 -9 45 -53 90 -60 59 -93 67 -127 33z"/>
<path d="M2515 3205 c-22 -21 -25 -33 -25 -93 0 -83 23 -122 70 -122 47 0 70
39 70 122 0 60 -3 72 -25 93 -31 32 -59 32 -90 0z"/>
<path d="M1545 2746 c-16 -7 -37 -22 -47 -32 -9 -11 -158 -325 -332 -700 -226
-487 -316 -691 -316 -716 0 -21 9 -46 22 -63 44 -56 31 -55 753 -55 l665 0 0
-310 0 -310 -431 0 c-428 0 -460 -2 -481 -34 -14 -21 -8 -66 12 -86 20 -20 33
-20 1200 -20 1167 0 1180 0 1200 20 29 29 26 74 -6 99 -26 21 -36 21 -490 21
l-464 0 0 310 0 310 665 0 c722 0 709 -1 753 55 13 17 22 42 22 63 0 25 -90
229 -316 716 -174 375 -323 689 -332 700 -42 47 -21 46 -1064 46 -793 -1 -989
-3 -1013 -14z m595 -138 c1 -30 -73 -494 -79 -501 -4 -4 -163 -6 -354 -5
l-347 3 91 195 c50 107 104 223 119 258 l29 62 270 0 c210 0 271 -3 271 -12z
m733 -230 c21 -134 37 -251 37 -260 0 -17 -23 -18 -350 -18 -327 0 -350 1
-350 18 0 9 16 126 37 260 l37 242 276 0 276 0 37 -242z m768 -18 l118 -255
-346 -3 c-191 -1 -350 1 -354 5 -6 7 -80 471 -79 501 0 10 58 12 271 10 l272
-3 118 -255z m-1603 -405 c2 -2 -19 -144 -45 -316 l-48 -314 -473 -3 c-259 -1
-472 0 -472 2 0 5 264 575 285 616 l13 25 368 -3 c203 -2 370 -5 372 -7z m922
-142 c13 -82 35 -224 50 -318 l26 -170 -238 -3 c-131 -1 -345 -1 -476 0 l-238
3 26 170 c15 94 37 236 50 318 l22 147 378 0 378 0 22 -147z m1010 -160 c78
-170 145 -314 147 -321 4 -10 -91 -12 -468 -10 l-474 3 -47 305 c-26 168 -47
311 -48 318 0 9 81 12 373 12 l374 0 143 -307z m-1270 -783 l0 -310 -140 0
-140 0 0 310 0 310 140 0 140 0 0 -310z"/>
</g>
</svg>
