<?xml version="1.0" standalone="no"?>
<!DOCTYPE svg PUBLIC "-//W3C//DTD SVG 20010904//EN"
 "http://www.w3.org/TR/2001/REC-SVG-20010904/DTD/svg10.dtd">
<svg version="1.0" xmlns="http://www.w3.org/2000/svg"
 width="752.000000pt" height="752.000000pt" viewBox="0 0 752.000000 752.000000"
 preserveAspectRatio="xMidYMid meet">

<g transform="translate(0.000000,752.000000) scale(0.100000,-0.100000)"
fill="#000000" stroke="none">
<path d="M3402 6079 c-93 -16 -241 -70 -321 -119 -132 -80 -801 -581 -868
-650 -93 -96 -616 -792 -664 -883 -91 -173 -127 -354 -109 -535 13 -121 251
-1113 291 -1208 60 -144 115 -212 398 -497 276 -278 349 -342 463 -402 105
-56 150 -68 688 -193 l505 -117 165 1 c193 0 267 16 415 89 113 56 867 581
950 662 90 87 598 787 661 911 76 149 99 251 98 432 l0 145 -113 525 c-118
549 -138 618 -217 755 -39 69 -82 116 -302 333 -141 139 -287 278 -324 308
-87 72 -203 137 -297 169 -79 26 -1012 255 -1115 274 -69 13 -228 13 -304 0z
m828 -238 c476 -117 608 -154 649 -180 11 -7 6 -84 -30 -472 l-44 -464 -68
-14 c-37 -8 -70 -11 -74 -7 -4 3 1 46 10 95 12 64 14 96 7 115 -7 20 -44 43
-170 106 -170 85 -184 88 -210 40 -19 -35 7 -58 140 -125 72 -36 130 -68 130
-73 0 -10 -32 -187 -35 -190 -5 -7 -1252 -252 -1270 -250 -22 3 -643 586 -644
605 -1 7 13 23 30 35 17 13 38 36 46 51 13 25 13 31 -2 53 -25 38 -62 32 -115
-20 l-45 -44 -95 88 c-85 79 -93 91 -80 104 8 8 179 137 380 285 329 243 454
330 465 319 2 -1 -10 -34 -26 -72 -36 -84 -36 -101 -3 -123 45 -29 69 -5 126
127 27 63 53 118 57 122 15 16 122 27 231 23 107 -4 152 -13 640 -134z m1009
-471 c314 -298 366 -351 350 -361 -8 -5 -51 -9 -96 -9 -70 0 -86 -3 -103 -20
-24 -24 -26 -53 -3 -75 15 -15 35 -17 152 -14 l136 4 32 -75 c23 -56 61 -211
144 -600 105 -490 113 -533 113 -640 1 -63 -3 -136 -7 -161 l-8 -45 -194 -64
c-107 -35 -197 -62 -199 -59 -2 2 -148 327 -325 721 l-320 717 9 82 c5 45 11
83 13 85 2 2 56 7 121 10 128 8 146 16 146 63 0 49 -18 55 -146 48 l-116 -5 6
51 c3 29 15 153 26 277 11 124 23 240 26 259 l5 33 27 -23 c15 -13 110 -103
211 -199z m-2879 -256 l90 -87 -25 -29 c-30 -36 -33 -83 -6 -98 32 -16 53 -12
86 19 l30 29 320 -305 c208 -197 319 -310 318 -322 -5 -42 -373 -1545 -380
-1552 -4 -3 -201 -27 -438 -53 -236 -25 -444 -48 -461 -51 -31 -5 -32 -4 -62
67 -17 41 -84 297 -153 583 -120 497 -123 513 -126 640 -4 167 11 246 48 256
15 3 79 31 144 60 129 58 119 59 157 -10 26 -47 98 -37 98 14 0 29 -44 132
-67 157 -25 28 -52 22 -180 -36 -65 -29 -120 -52 -122 -50 -9 8 86 142 344
483 154 204 284 371 288 371 4 0 48 -39 97 -86z m2770 -1186 c168 -375 311
-695 318 -712 l12 -29 -260 -261 -259 -261 -98 98 c-103 102 -133 116 -167 81
-33 -32 -19 -56 86 -156 l103 -98 -270 -270 c-148 -148 -273 -270 -277 -270
-7 0 -1399 687 -1406 695 -4 4 9 66 39 179 10 37 11 38 25 17 19 -27 36 -26
202 3 135 24 172 40 172 77 0 10 -11 26 -24 37 -25 19 -26 19 -168 -5 -79 -13
-153 -27 -164 -32 -26 -11 -45 -100 149 699 l142 585 750 152 c413 83 759 151
770 152 17 1 65 -100 325 -681z m770 -695 c-1 -29 -100 -176 -332 -494 -147
-201 -273 -371 -281 -377 -10 -9 -28 2 -84 53 -75 68 -95 76 -125 48 -31 -28
-21 -54 50 -126 l67 -69 -33 -25 c-18 -15 -200 -143 -405 -286 -339 -236 -487
-330 -487 -310 0 5 25 73 55 152 l55 143 586 593 586 593 166 55 c185 61 182
60 182 50z m-2356 -927 c394 -195 716 -357 716 -360 0 -17 -125 -334 -137
-346 -11 -12 -44 -15 -171 -15 l-157 1 -500 116 c-497 116 -545 129 -619 164
l-39 19 7 123 c6 104 5 128 -9 148 -17 26 -68 33 -82 12 -4 -7 -13 -58 -19
-113 l-10 -100 -300 299 c-164 164 -294 300 -289 302 16 5 554 64 587 64 l31
0 -6 -115 c-6 -106 -5 -117 13 -135 24 -24 49 -25 76 -6 17 13 19 30 22 144
l4 131 66 6 c37 4 72 8 77 10 6 2 13 4 16 4 4 1 329 -158 723 -353z"/>
<path d="M2908 5466 c-65 -63 -118 -120 -118 -128 0 -27 31 -58 58 -58 21 0
53 26 140 111 92 90 112 115 112 139 0 31 -23 50 -57 50 -10 -1 -71 -52 -135
-114z"/>
<path d="M3311 5566 c-7 -8 -11 -27 -9 -43 3 -25 18 -35 147 -101 151 -78 179
-83 202 -41 22 42 -2 64 -141 134 -130 65 -177 77 -199 51z"/>
<path d="M3818 5329 c-12 -6 -18 -22 -18 -44 0 -35 1 -35 141 -106 151 -75
185 -82 205 -40 22 44 1 64 -144 135 -141 68 -155 72 -184 55z"/>
<path d="M2137 4714 c-129 -122 -137 -131 -137 -160 0 -31 43 -60 70 -48 38
18 240 223 240 244 0 24 -33 60 -56 60 -8 0 -61 -43 -117 -96z"/>
<path d="M2030 4070 c-11 -11 -20 -26 -20 -32 0 -7 33 -78 73 -158 65 -131 75
-145 100 -148 37 -4 57 13 57 49 0 30 -123 288 -144 301 -20 13 -45 9 -66 -12z"/>
<path d="M2278 3578 c-34 -27 -28 -51 45 -198 65 -131 75 -145 100 -148 32 -4
52 9 60 38 5 21 -109 268 -139 301 -20 22 -44 24 -66 7z"/>
<path d="M2522 3083 c-7 -3 -17 -16 -22 -29 -12 -31 60 -190 91 -199 27 -9
158 13 187 31 27 18 29 55 3 78 -17 15 -30 17 -80 11 l-61 -7 -20 49 c-28 65
-55 83 -98 66z"/>
<path d="M4497 4393 c-15 -17 -67 -259 -67 -313 0 -14 5 -31 12 -38 18 -18 63
-15 80 6 9 9 27 83 42 166 25 136 25 150 11 172 -18 28 -55 31 -78 7z"/>
<path d="M4391 3846 c-12 -14 -62 -259 -63 -310 -1 -30 23 -56 52 -56 39 0 50
24 80 180 27 140 28 156 15 177 -18 26 -66 31 -84 9z"/>
<path d="M4298 3310 c-9 -6 -19 -24 -23 -40 -4 -17 -10 -30 -13 -30 -31 0
-177 -32 -188 -41 -22 -18 -17 -66 9 -83 19 -12 35 -12 119 2 l98 16 94 -92
c77 -76 99 -92 124 -92 33 0 52 21 52 57 0 10 -43 61 -95 113 -90 90 -95 97
-95 137 0 32 -5 45 -19 53 -24 12 -41 12 -63 0z"/>
<path d="M3680 3143 c-79 -14 -142 -31 -152 -40 -24 -21 -23 -56 1 -77 19 -17
27 -17 177 8 87 15 164 32 171 38 19 15 16 62 -5 81 -22 21 -24 20 -192 -10z"/>
</g>
</svg>
