<?xml version="1.0" standalone="no"?>
<!DOCTYPE svg PUBLIC "-//W3C//DTD SVG 20010904//EN"
 "http://www.w3.org/TR/2001/REC-SVG-20010904/DTD/svg10.dtd">
<svg version="1.0" xmlns="http://www.w3.org/2000/svg"
 width="490.000000pt" height="454.000000pt" viewBox="0 0 490.000000 454.000000"
 preserveAspectRatio="xMidYMid meet">

<g transform="translate(0.000000,454.000000) scale(0.100000,-0.100000)"
fill="#000000" stroke="none">
<path d="M2320 3720 c-247 -52 -472 -169 -713 -370 -102 -85 -293 -281 -334
-342 -31 -46 -33 -42 89 -178 201 -224 405 -384 633 -496 366 -179 702 -177
1068 6 124 63 247 144 356 235 97 81 279 264 341 343 l42 52 -58 73 c-135 167
-352 359 -544 482 -281 180 -608 253 -880 195z m362 -159 c107 -31 185 -78
271 -162 63 -62 85 -93 116 -160 50 -108 61 -158 61 -268 0 -178 -54 -307
-180 -432 -122 -120 -263 -179 -428 -179 -124 0 -216 27 -322 95 -121 78 -205
183 -258 323 -21 57 -25 85 -26 187 -1 75 4 135 12 160 75 229 219 372 437
436 84 25 231 25 317 0z m-835 -263 c-57 -121 -71 -187 -71 -328 1 -142 16
-212 72 -328 19 -40 33 -74 31 -77 -18 -17 -449 371 -449 405 0 16 242 256
316 312 101 76 129 96 133 93 1 -2 -13 -37 -32 -77z m1406 18 c154 -115 357
-314 357 -348 0 -15 -203 -221 -280 -284 -74 -60 -148 -114 -159 -114 -6 0 5
31 24 68 53 107 75 203 75 333 0 61 -5 130 -11 153 -21 82 -43 142 -71 194
-16 28 -24 52 -18 52 6 0 44 -24 83 -54z"/>
<path d="M2462 3143 c-37 -7 -99 -73 -111 -120 -34 -126 58 -240 186 -230 98
7 163 78 163 177 0 127 -100 199 -238 173z"/>
<path d="M1185 2633 c-20 -47 -20 -47 20 -66 l35 -17 20 33 c28 45 26 52 -20
70 l-40 16 -15 -36z"/>
<path d="M3798 2649 c-31 -16 -36 -23 -29 -37 5 -9 12 -25 15 -34 6 -21 37
-23 69 -5 12 6 23 13 25 13 5 2 -32 84 -38 84 -3 -1 -22 -10 -42 -21z"/>
<path d="M1088 2404 c-10 -21 -15 -41 -12 -45 2 -4 21 -13 40 -19 40 -13 48
-8 60 38 8 27 -9 48 -46 57 -22 5 -28 1 -42 -31z"/>
<path d="M3888 2424 c-33 -17 -32 -15 -14 -59 17 -40 16 -40 61 -21 40 17 40
16 21 61 -16 38 -27 42 -68 19z"/>
<path d="M999 2192 c-5 -15 -11 -32 -14 -39 -5 -14 37 -43 64 -43 13 0 23 11
31 36 14 40 10 46 -38 62 -31 11 -33 10 -43 -16z"/>
<path d="M3981 2197 c-25 -13 -26 -17 -12 -59 11 -31 24 -34 64 -15 30 13 32
24 15 62 -12 28 -31 31 -67 12z"/>
<path d="M911 1977 c-25 -66 -24 -67 14 -83 34 -14 38 -14 51 3 7 10 14 21 14
25 0 3 3 13 6 22 4 10 -7 21 -36 35 l-41 20 -8 -22z"/>
<path d="M4072 1975 c-19 -8 -32 -18 -30 -22 2 -5 10 -23 17 -40 7 -18 17 -33
22 -33 8 0 68 27 77 35 7 6 -33 75 -42 75 -6 -1 -26 -7 -44 -15z"/>
<path d="M823 1758 c-5 -7 -14 -25 -21 -40 -11 -26 -9 -29 18 -43 42 -22 60
-19 71 13 14 42 14 46 -17 64 -36 21 -39 21 -51 6z"/>
<path d="M4173 1752 c-38 -18 -38 -18 -18 -66 l15 -36 38 17 c20 10 39 18 40
19 7 5 -22 73 -32 77 -6 3 -26 -3 -43 -11z"/>
<path d="M717 1503 l-15 -38 35 -18 c40 -21 49 -16 71 35 11 27 10 29 -24 43
-49 20 -50 20 -67 -22z"/>
<path d="M4263 1525 c-38 -16 -37 -13 -18 -59 18 -41 15 -40 60 -22 39 17 40
17 23 63 -13 37 -19 38 -65 18z"/>
<path d="M624 1285 c-19 -47 -19 -48 25 -66 l39 -16 16 34 c9 18 16 37 16 41
0 7 -63 42 -76 42 -3 0 -12 -16 -20 -35z"/>
<path d="M4355 1303 c-16 -8 -31 -17 -33 -18 -2 -2 6 -21 17 -44 l21 -41 38
17 c20 10 38 18 39 19 8 3 -33 84 -42 83 -5 0 -23 -7 -40 -16z"/>
<path d="M531 1059 c-6 -18 -11 -36 -11 -41 0 -8 59 -38 75 -38 4 0 35 67 35
77 0 5 -66 33 -79 33 -5 0 -14 -14 -20 -31z"/>
<path d="M4454 1080 c-32 -13 -37 -26 -23 -65 14 -37 15 -37 77 -14 26 10 26
7 7 53 -16 37 -25 41 -61 26z"/>
<path d="M810 891 c-41 -42 -86 -89 -99 -103 l-23 -27 100 -100 c55 -56 103
-101 106 -101 3 0 6 30 8 68 l3 67 1618 3 1617 2 0 -70 c0 -38 3 -70 8 -70 11
0 202 194 202 205 0 12 -191 205 -203 205 -4 0 -7 -32 -7 -70 l0 -70 -1618 2
-1617 3 -3 68 c-2 37 -6 67 -10 66 -4 -1 -41 -36 -82 -78z"/>
</g>
</svg>
