<?xml version="1.0" standalone="no"?>
<!DOCTYPE svg PUBLIC "-//W3C//DTD SVG 20010904//EN"
 "http://www.w3.org/TR/2001/REC-SVG-20010904/DTD/svg10.dtd">
<svg version="1.0" xmlns="http://www.w3.org/2000/svg"
 width="512.000000pt" height="512.000000pt" viewBox="0 0 512.000000 512.000000"
 preserveAspectRatio="xMidYMid meet">

<g transform="translate(0.000000,512.000000) scale(0.100000,-0.100000)"
fill="#000000" stroke="none">
<path d="M1612 4629 c-171 -23 -393 -98 -532 -179 -609 -355 -859 -1126 -609
-1875 80 -239 261 -568 434 -785 273 -345 914 -876 1490 -1236 101 -63 114
-69 165 -69 62 0 97 19 390 216 478 320 994 761 1246 1064 173 209 371 563
453 810 122 368 127 745 15 1094 -14 42 -51 131 -84 198 -189 386 -533 650
-973 745 -135 29 -408 31 -537 5 -139 -29 -278 -77 -397 -138 l-113 -57 -113
57 c-207 105 -381 149 -612 156 -82 2 -183 -1 -223 -6z m334 -320 c165 -23
326 -85 468 -180 129 -86 156 -86 295 4 345 220 746 247 1108 72 343 -166 561
-502 603 -930 35 -352 -74 -723 -324 -1105 -193 -294 -535 -625 -1041 -1005
-135 -101 -481 -335 -495 -335 -15 0 -366 239 -500 339 -404 304 -782 653
-946 873 -145 195 -280 448 -348 651 -92 279 -94 614 -5 881 76 228 225 431
407 555 222 151 510 217 778 180z"/>
<path d="M3271 3748 c-50 -34 -73 -82 -68 -144 4 -65 33 -106 95 -134 105 -48
136 -67 188 -122 64 -66 99 -138 118 -236 16 -86 38 -124 89 -152 73 -42 174
-12 214 63 52 98 -27 355 -156 512 -100 122 -272 226 -386 233 -50 3 -66 0
-94 -20z"/>
</g>
</svg>
