<?xml version="1.0" standalone="no"?>
<!DOCTYPE svg PUBLIC "-//W3C//DTD SVG 20010904//EN"
 "http://www.w3.org/TR/2001/REC-SVG-20010904/DTD/svg10.dtd">
<svg version="1.0" xmlns="http://www.w3.org/2000/svg"
 width="500.000000pt" height="500.000000pt" viewBox="0 0 500.000000 500.000000"
 preserveAspectRatio="xMidYMid meet">

<g transform="translate(0.000000,500.000000) scale(0.100000,-0.100000)"
fill="#000000" stroke="none">
<path d="M3085 4843 c-208 -51 -1957 -509 -2000 -525 -113 -40 -209 -118 -268
-219 -14 -24 -188 -388 -387 -808 -407 -858 -404 -851 -382 -1003 8 -57 23
-105 47 -153 46 -91 1297 -1782 1370 -1852 58 -55 150 -105 225 -122 116 -27
137 -23 1213 220 1152 259 1119 250 1232 364 36 37 73 88 92 126 128 262 707
1563 719 1618 28 115 6 251 -55 356 -36 63 -1277 1784 -1330 1845 -82 96 -233
160 -371 159 -47 -1 -94 -4 -105 -6z m191 -116 c2 -2 -10 -50 -26 -108 -43
-154 -38 -189 29 -189 30 0 46 32 77 148 15 56 30 102 34 102 9 0 602 -1261
596 -1267 -6 -6 -16 -3 -426 150 -184 68 -609 227 -945 351 -335 125 -650 242
-700 261 l-90 34 35 14 c19 8 258 99 530 202 272 104 567 217 655 251 116 45
169 62 194 59 18 -2 35 -6 37 -8z m-947 -201 c-3 -3 -153 -61 -334 -130 l-330
-126 -149 0 c-82 0 -147 3 -143 6 5 6 928 251 951 253 5 1 7 -1 5 -3z m1880
-918 c264 -368 477 -668 473 -668 -4 0 -124 89 -267 198 l-259 197 -196 415
c-269 569 -263 557 -246 540 8 -8 230 -315 495 -682z m-3177 533 c-29 -51 -11
-68 156 -146 135 -63 150 -72 139 -87 -23 -33 -1052 -1226 -1055 -1223 -2 1
142 310 320 686 305 646 326 686 378 741 61 63 90 77 62 29z m498 10 c0 -11
-118 -151 -127 -151 -3 0 -11 7 -18 16 -6 10 -70 45 -141 80 l-129 62 208 1
c123 1 207 -3 207 -8z m840 -266 c305 -114 567 -212 583 -217 15 -5 27 -16 27
-24 0 -14 -81 -316 -87 -323 -1 -2 -51 18 -109 44 -59 27 -115 48 -126 48 -32
-3 -49 -24 -46 -57 3 -28 11 -35 106 -83 l103 -51 -75 -58 c-66 -50 -76 -63
-76 -89 0 -73 50 -73 146 0 l73 54 11 -57 c17 -84 19 -91 42 -103 31 -16 67
-3 74 28 4 15 3 54 -3 87 -6 34 -9 63 -7 64 1 2 43 -8 93 -22 100 -29 131 -32
149 -14 14 14 16 57 3 76 -4 8 -61 29 -126 48 -65 18 -119 35 -121 37 -3 3 36
157 72 286 13 46 18 52 37 47 51 -13 867 -320 867 -326 0 -3 -63 -52 -139
-108 l-139 -101 -104 30 c-112 32 -143 31 -160 -6 -18 -39 10 -70 82 -92 l62
-18 -244 -177 c-133 -98 -244 -174 -245 -170 -1 4 -7 33 -13 65 -14 68 -41 94
-82 78 -37 -14 -40 -34 -22 -133 9 -50 13 -93 8 -98 -22 -19 -858 -622 -870
-627 -8 -3 -14 -1 -14 3 0 5 -20 126 -44 269 l-44 260 34 28 c53 45 41 107
-21 107 -28 0 -34 4 -39 28 -12 58 -176 1052 -176 1067 0 12 4 14 19 5 34 -18
69 -12 87 15 26 40 7 69 -71 104 -36 16 -65 33 -65 38 0 4 -9 60 -20 123 -27
158 -28 152 18 136 20 -8 287 -107 592 -221z m-731 122 c6 -35 11 -73 11 -85
0 -19 -3 -20 -25 -10 -48 22 -92 -31 -66 -81 7 -13 60 -43 118 -66 1 -1 47
-273 103 -605 55 -333 103 -616 105 -630 5 -22 -5 -33 -70 -83 -63 -48 -75
-62 -75 -87 0 -28 30 -60 56 -60 6 0 33 16 59 36 32 25 50 33 54 25 10 -15 84
-461 78 -467 -5 -6 -519 116 -529 125 -4 4 24 31 63 60 88 67 106 93 91 126
-6 14 -23 27 -37 31 -22 5 -45 -8 -145 -85 -65 -50 -127 -91 -137 -91 -24 0
-1091 257 -1121 270 -13 6 -22 17 -20 25 3 15 1459 1714 1469 1715 4 0 12 -28
18 -63z m2386 -1050 c-34 -25 -34 -69 1 -94 l25 -19 -7 -1017 c-6 -926 -9
-1017 -23 -1012 -9 3 -184 97 -388 208 -233 126 -365 203 -353 205 11 2 28 14
36 27 15 23 14 36 -11 177 -30 170 -42 198 -83 198 -36 0 -52 -17 -52 -55 0
-39 46 -301 56 -317 5 -8 1 -9 -12 -4 -53 20 -1034 560 -1032 567 2 5 188 143
414 307 l411 299 27 -24 c34 -29 41 -29 71 1 19 19 22 31 18 63 l-5 40 300
219 c285 207 303 218 341 215 33 -2 42 2 56 22 8 13 13 31 10 39 -4 11 27 39
107 97 l113 81 3 -102 c3 -100 2 -103 -23 -121z m418 19 c130 -99 235 -181
234 -183 -2 -1 -17 1 -34 6 -44 13 -77 -6 -81 -46 -4 -42 15 -53 158 -93 63
-18 119 -36 123 -40 17 -15 -12 -140 -53 -235 -23 -52 -46 -98 -51 -101 -5 -3
-9 -2 -8 3 7 40 -25 69 -65 59 -32 -8 -226 -248 -226 -279 0 -32 24 -57 55
-57 19 0 48 29 127 125 56 68 103 123 105 121 4 -3 -562 -1254 -571 -1263 -8
-8 -8 514 0 553 3 16 50 83 104 149 108 131 120 161 75 191 -35 23 -58 11
-117 -64 l-53 -66 -3 529 c-1 290 -1 530 1 532 2 1 41 -8 87 -22 46 -14 87
-25 92 -25 15 0 48 40 48 58 0 36 -26 53 -125 80 l-100 29 -3 39 c-2 21 -1 76
3 121 6 76 8 82 24 70 9 -6 123 -93 254 -191z m-3301 -1000 c461 -111 841
-205 844 -208 5 -6 -372 -1437 -381 -1447 -7 -7 -8 -6 -79 136 -69 140 -88
158 -134 134 -19 -10 -62 45 -529 677 -280 378 -512 693 -517 700 -6 9 -2 10
18 1 35 -16 74 -4 82 26 9 37 2 48 -78 111 -95 74 -95 74 -77 74 7 -1 391 -92
851 -204z m1574 -583 c332 -181 604 -331 604 -334 0 -4 -9 -9 -20 -12 -32 -8
-35 -35 -17 -141 10 -54 16 -101 14 -103 -2 -1 -59 18 -127 43 -67 25 -129 43
-136 40 -7 -3 -20 -16 -30 -30 -26 -41 -1 -68 101 -107 47 -17 84 -33 82 -35
-1 -2 -31 -13 -66 -26 -71 -26 -87 -42 -77 -82 12 -50 39 -49 209 5 l156 50
97 119 c54 66 102 120 107 120 15 0 238 -123 232 -128 -2 -2 -44 -4 -93 -3
-52 1 -100 -3 -116 -10 -31 -14 -42 -48 -27 -77 9 -17 8 -22 -7 -26 -18 -5
-728 -166 -734 -166 -2 0 -2 15 0 34 3 28 -1 37 -21 51 -25 16 -32 15 -186
-34 -169 -54 -189 -67 -177 -116 5 -21 1 -24 -79 -40 l-86 -18 -20 21 c-11 12
-27 22 -35 22 -9 0 -84 -23 -169 -50 -105 -35 -157 -57 -167 -71 -11 -17 -27
-21 -93 -26 -141 -9 -141 -57 -2 464 l120 451 81 -30 c45 -17 109 -40 143 -51
61 -20 63 -20 83 -2 22 20 27 67 8 82 -7 6 -74 33 -148 61 -74 28 -134 54
-134 59 4 21 107 409 111 416 2 4 7 7 10 7 3 0 277 -147 609 -327z m725 -394
c32 -18 59 -37 59 -43 -1 -6 -21 -33 -45 -61 -31 -35 -45 -45 -48 -35 -9 29
-33 170 -29 170 2 0 31 -14 63 -31z"/>
<path d="M3162 4243 c-15 -13 -33 -64 -61 -168 -23 -83 -41 -156 -41 -163 0
-16 37 -52 54 -52 36 0 56 37 96 182 22 82 40 157 40 167 0 20 -34 51 -56 51
-7 0 -21 -8 -32 -17z"/>
<path d="M2099 3649 c-13 -13 -19 -30 -17 -47 3 -24 20 -35 148 -99 160 -79
191 -86 216 -48 30 46 13 62 -151 141 -84 41 -158 74 -164 74 -6 0 -20 -9 -32
-21z"/>
<path d="M2341 2852 c-68 -53 -129 -105 -135 -115 -16 -25 12 -71 44 -75 32
-4 285 187 294 220 3 13 -1 33 -10 45 -27 42 -59 30 -193 -75z"/>
<path d="M3092 2203 c-30 -12 -30 -49 -2 -207 16 -86 34 -164 41 -172 18 -22
66 -17 84 9 13 21 12 38 -14 187 -22 123 -33 167 -47 177 -18 13 -39 15 -62 6z"/>
<path d="M3915 1440 c-11 -4 -34 -25 -51 -46 -17 -22 -64 -79 -103 -127 -39
-48 -71 -97 -71 -107 0 -27 27 -50 60 -50 23 0 44 19 134 129 58 71 106 138
106 148 0 39 -39 66 -75 53z"/>
<path d="M592 1874 c-22 -15 -29 -48 -14 -71 4 -6 60 -53 126 -105 l118 -93
82 -160 c44 -87 89 -164 99 -170 23 -13 71 13 75 42 2 12 -17 62 -42 112 -25
50 -46 95 -46 100 0 5 28 -1 62 -15 72 -28 91 -30 112 -8 19 19 21 68 4 81 -7
6 -47 23 -88 38 -41 15 -79 31 -84 35 -4 5 20 30 55 57 87 66 99 80 99 106 0
28 -28 57 -55 57 -10 0 -62 -33 -114 -73 -53 -40 -102 -77 -108 -81 -8 -4 -49
21 -106 67 -91 73 -127 97 -144 97 -5 0 -19 -7 -31 -16z"/>
<path d="M1368 1489 c-26 -15 -24 -75 2 -89 49 -26 285 -110 309 -110 15 0 32
5 39 12 18 18 15 63 -5 80 -20 17 -290 119 -313 118 -8 0 -23 -5 -32 -11z"/>
<path d="M1117 1102 c-10 -10 -17 -27 -17 -38 0 -26 142 -295 162 -308 24 -14
69 3 79 31 6 18 -8 55 -65 171 -41 82 -82 152 -91 156 -29 11 -51 7 -68 -12z"/>
<path d="M2454 1066 c-13 -21 -14 -29 -2 -52 11 -22 37 -36 158 -80 80 -30
155 -54 167 -54 47 0 71 62 36 92 -23 19 -291 118 -320 118 -13 0 -30 -11 -39
-24z"/>
</g>
</svg>
