<?xml version="1.0" standalone="no"?>
<!DOCTYPE svg PUBLIC "-//W3C//DTD SVG 20010904//EN"
 "http://www.w3.org/TR/2001/REC-SVG-20010904/DTD/svg10.dtd">
<svg version="1.0" xmlns="http://www.w3.org/2000/svg"
 width="512.000000pt" height="512.000000pt" viewBox="0 0 512.000000 512.000000"
 preserveAspectRatio="xMidYMid meet">

<g transform="translate(0.000000,512.000000) scale(0.100000,-0.100000)"
fill="#000000" stroke="none">
<path d="M2420 5113 c-207 -21 -437 -106 -620 -228 -99 -67 -262 -224 -333
-323 -121 -167 -210 -380 -242 -572 -19 -121 -19 -328 0 -448 43 -265 180
-533 368 -723 l66 -66 3 -434 c4 -401 6 -439 25 -504 67 -230 191 -404 376
-526 154 -101 314 -149 496 -149 255 0 455 83 636 265 107 107 167 198 212
323 48 132 53 185 53 614 l0 400 81 86 c187 201 308 442 356 706 22 121 21
342 -1 464 -107 588 -582 1039 -1171 1111 -85 10 -227 12 -305 4z m402 -331
c412 -111 717 -453 779 -871 16 -112 6 -292 -22 -400 -50 -197 -144 -357 -299
-510 -54 -53 -102 -106 -109 -118 -7 -14 -11 -109 -11 -287 l0 -266 -225 0
-225 0 0 463 0 462 196 195 c214 213 241 250 229 321 -14 82 -98 140 -182 124
-32 -6 -64 -33 -215 -183 l-178 -176 -177 176 c-187 185 -206 198 -275 183
-75 -17 -118 -72 -118 -153 0 -65 16 -85 239 -307 l181 -180 0 -462 0 -463
-225 0 -225 0 0 273 c0 315 11 279 -122 405 -418 400 -437 1052 -42 1472 151
160 348 270 564 316 99 20 363 12 462 -14z m334 -2765 c3 -8 -2 -49 -11 -93
-44 -213 -197 -386 -404 -453 -316 -103 -673 93 -754 414 -14 52 -21 113 -18
138 1 4 267 7 591 7 483 0 592 -2 596 -13z"/>
<path d="M400 2003 c-74 -30 -109 -95 -110 -199 l0 -71 -85 -5 c-125 -8 -182
-50 -192 -141 -4 -35 0 -54 17 -85 34 -60 81 -82 178 -82 l80 0 4 -88 c6 -130
45 -182 144 -190 107 -9 163 60 164 201 l0 77 83 0 c66 0 89 5 121 23 73 42
99 140 53 207 -35 53 -76 72 -171 77 l-84 6 -4 88 c-3 93 -15 121 -70 162 -26
20 -101 31 -128 20z"/>
<path d="M4361 1720 c-75 -18 -125 -85 -118 -159 5 -49 29 -86 77 -118 32 -23
38 -23 352 -23 275 0 325 2 354 16 49 23 77 68 82 128 5 60 -21 107 -78 140
-33 20 -52 21 -335 23 -165 1 -315 -2 -334 -7z"/>
<path d="M79 797 c-67 -44 -69 -58 -69 -386 0 -280 1 -295 21 -331 12 -21 38
-47 59 -59 l38 -21 2433 0 2434 0 39 23 c74 42 76 52 76 392 0 282 -1 302 -20
333 -11 18 -34 41 -52 52 -33 20 -56 20 -2479 20 l-2446 0 -34 -23z m3661
-382 l0 -105 -1710 0 -1710 0 0 105 0 105 1710 0 1710 0 0 -105z m1070 0 l0
-105 -380 0 -380 0 0 105 0 105 380 0 380 0 0 -105z"/>
</g>
</svg>
