<?xml version="1.0" standalone="no"?>
<!DOCTYPE svg PUBLIC "-//W3C//DTD SVG 20010904//EN"
 "http://www.w3.org/TR/2001/REC-SVG-20010904/DTD/svg10.dtd">
<svg version="1.0" xmlns="http://www.w3.org/2000/svg"
 width="512.000000pt" height="512.000000pt" viewBox="0 0 512.000000 512.000000"
 preserveAspectRatio="xMidYMid meet">

<g transform="translate(0.000000,512.000000) scale(0.100000,-0.100000)"
fill="#000000" stroke="none">
<path d="M2511 5106 c-49 -27 -50 -37 -51 -414 0 -383 2 -396 55 -420 51 -23
107 -7 131 39 19 37 21 713 2 754 -22 48 -88 68 -137 41z"/>
<path d="M1324 4730 c-31 -12 -64 -59 -64 -90 0 -23 93 -193 287 -526 53 -89
95 -111 158 -82 30 13 55 55 55 90 0 31 -302 556 -340 591 -31 27 -58 33 -96
17z"/>
<path d="M3702 4714 c-40 -36 -342 -560 -342 -592 0 -35 25 -77 55 -90 63 -29
105 -7 158 82 199 341 287 503 287 527 0 40 -46 88 -91 95 -30 5 -41 2 -67
-22z"/>
<path d="M414 3826 c-43 -43 -45 -83 -6 -126 34 -38 559 -340 590 -340 53 0
102 48 102 100 0 45 -26 73 -114 125 -322 189 -482 275 -509 275 -20 0 -40
-11 -63 -34z"/>
<path d="M2392 3850 c-557 -79 -988 -483 -1108 -1041 -26 -118 -26 -380 0
-499 58 -267 167 -470 356 -661 326 -331 792 -462 1236 -349 116 30 208 67
235 96 32 34 32 94 0 128 -38 41 -70 41 -178 3 -141 -49 -218 -62 -378 -62
-159 1 -246 16 -385 68 -345 130 -607 436 -687 805 -22 97 -24 328 -4 427 44
224 150 418 316 580 223 217 518 329 820 312 289 -17 527 -125 730 -332 300
-307 392 -740 244 -1149 -37 -104 -33 -137 21 -174 67 -45 123 -11 165 97 63
167 91 345 81 526 -17 329 -145 617 -380 851 -184 184 -389 297 -646 355 -98
22 -340 33 -438 19z"/>
<path d="M4399 3737 c-349 -200 -354 -204 -367 -232 -32 -70 15 -145 91 -145
32 0 556 303 591 341 24 27 27 38 22 68 -7 45 -55 91 -95 91 -17 0 -107 -45
-242 -123z"/>
<path d="M51 2646 c-67 -37 -65 -143 4 -174 41 -19 717 -17 754 2 66 35 66
137 0 172 -39 20 -722 20 -758 0z"/>
<path d="M4311 2646 c-47 -26 -63 -84 -37 -135 26 -49 40 -51 417 -51 380 0
393 2 417 55 23 51 7 107 -39 131 -39 20 -722 20 -758 0z"/>
<path d="M3361 1796 c-87 -48 -50 -186 49 -186 51 0 100 49 100 99 0 75 -83
124 -149 87z"/>
<path d="M705 1605 c-149 -86 -283 -170 -299 -187 -24 -26 -27 -37 -22 -67 7
-45 55 -91 95 -91 25 0 173 80 507 275 88 52 114 80 114 125 0 52 -49 100
-102 100 -13 0 -145 -70 -293 -155z"/>
<path d="M4071 1746 c-28 -15 -50 -52 -51 -83 0 -45 24 -74 94 -116 341 -199
503 -287 527 -287 40 0 88 46 95 91 5 30 2 41 -22 68 -38 41 -560 341 -594
341 -14 -1 -36 -7 -49 -14z"/>
<path d="M1612 1088 c-24 -12 -32 -25 -229 -367 -78 -135 -123 -225 -123 -242
0 -40 46 -88 91 -95 30 -5 41 -2 67 22 39 35 342 560 342 591 0 76 -78 124
-148 91z"/>
<path d="M3411 1086 c-29 -16 -50 -52 -51 -86 0 -33 300 -556 342 -594 26 -24
37 -27 67 -22 45 7 91 55 91 95 0 24 -88 186 -287 527 -53 90 -101 114 -162
80z"/>
<path d="M2511 846 c-49 -27 -50 -37 -51 -414 0 -383 2 -396 55 -420 51 -23
107 -7 131 39 19 37 21 713 2 754 -22 48 -88 68 -137 41z"/>
</g>
</svg>
