<?xml version="1.0" standalone="no"?>
<!DOCTYPE svg PUBLIC "-//W3C//DTD SVG 20010904//EN"
 "http://www.w3.org/TR/2001/REC-SVG-20010904/DTD/svg10.dtd">
<svg version="1.0" xmlns="http://www.w3.org/2000/svg"
 width="512.000000pt" height="512.000000pt" viewBox="0 0 512.000000 512.000000"
 preserveAspectRatio="xMidYMid meet">

<g transform="translate(0.000000,512.000000) scale(0.100000,-0.100000)"
fill="#000000" stroke="none">
<path d="M4469 3976 c-152 -59 -244 -165 -270 -314 -17 -95 7 -202 67 -293
l17 -26 -292 -351 -293 -350 -46 21 c-39 18 -66 22 -152 22 -94 0 -111 -3
-160 -27 -31 -15 -74 -43 -96 -62 l-40 -34 -202 122 -202 121 7 30 c5 17 8 73
8 125 0 82 -4 103 -27 152 -37 80 -107 152 -187 191 -61 30 -72 32 -171 32
-93 0 -112 -3 -162 -27 -249 -116 -307 -432 -117 -633 l52 -55 -162 -358 -163
-357 -101 0 c-90 0 -109 -3 -159 -27 -32 -15 -79 -47 -105 -71 l-48 -45 -272
141 c-149 78 -274 145 -277 148 -3 3 -1 31 5 62 31 155 -60 329 -215 410 -58
30 -67 32 -171 32 -93 0 -118 -3 -159 -23 -282 -130 -318 -509 -66 -685 148
-103 363 -87 490 38 l45 44 270 -140 c149 -78 273 -144 277 -148 4 -4 3 -32
-2 -64 -27 -166 69 -341 228 -415 50 -24 69 -27 162 -27 99 0 110 2 172 33 78
38 149 110 187 192 23 48 26 68 26 160 0 93 -3 112 -27 162 -14 31 -50 82 -80
112 l-53 55 162 358 163 358 103 0 c89 0 109 3 158 26 31 15 74 43 96 62 l40
36 202 -122 c189 -114 202 -124 196 -147 -3 -14 -8 -59 -12 -100 -9 -127 45
-248 148 -330 174 -137 439 -98 562 82 55 80 70 130 70 228 0 91 -16 148 -59
213 -15 23 -22 43 -17 51 4 7 135 166 291 353 l283 341 57 -24 c42 -17 77 -24
133 -24 95 0 160 19 229 67 252 176 215 559 -66 685 -61 27 -219 36 -275 14z
m224 -143 c48 -19 120 -99 135 -151 28 -93 9 -181 -55 -252 -171 -191 -490
-26 -434 224 15 69 57 127 117 162 78 46 151 51 237 17z m-2157 -653 c96 -41
149 -133 142 -248 -6 -115 -76 -199 -191 -229 -181 -47 -357 133 -303 310 21
70 59 122 110 152 79 46 158 51 242 15z m1097 -663 c139 -81 167 -261 61 -385
-48 -56 -113 -86 -189 -86 -186 0 -309 192 -231 359 64 138 228 189 359 112z
m-2982 -123 c61 -30 106 -85 125 -153 48 -164 -74 -323 -248 -323 -213 0 -327
257 -185 418 82 93 196 115 308 58z m1234 -644 c90 -39 145 -125 145 -230 0
-76 -21 -130 -70 -178 -144 -145 -386 -72 -432 130 -29 129 68 271 202 297 54
10 101 5 155 -19z"/>
</g>
</svg>
