<?xml version="1.0" standalone="no"?>
<!DOCTYPE svg PUBLIC "-//W3C//DTD SVG 20010904//EN"
 "http://www.w3.org/TR/2001/REC-SVG-20010904/DTD/svg10.dtd">
<svg version="1.0" xmlns="http://www.w3.org/2000/svg"
 width="512.000000pt" height="512.000000pt" viewBox="0 0 512.000000 512.000000"
 preserveAspectRatio="xMidYMid meet">

<g transform="translate(0.000000,512.000000) scale(0.100000,-0.100000)"
fill="#000000" stroke="none">
<path d="M2330 5110 c-891 -80 -1694 -640 -2079 -1450 -261 -550 -319 -1165
-166 -1749 48 -179 92 -296 181 -477 253 -518 676 -936 1194 -1183 550 -261
1165 -319 1749 -166 331 88 654 248 929 462 721 564 1091 1494 952 2398 -41
264 -113 491 -236 741 -363 741 -1066 1264 -1879 1399 -198 32 -449 42 -645
25z m550 -355 c716 -107 1341 -560 1667 -1210 195 -388 271 -863 207 -1305
-102 -711 -559 -1341 -1209 -1667 -388 -195 -863 -271 -1305 -207 -711 102
-1341 559 -1667 1209 -195 388 -271 863 -207 1305 102 711 559 1341 1209 1667
226 114 524 198 790 222 130 13 382 5 515 -14z"/>
<path d="M1809 4149 c-20 -12 -47 -40 -60 -63 -23 -39 -24 -52 -27 -253 l-4
-212 -216 -3 c-206 -3 -219 -4 -254 -26 -42 -26 -78 -91 -78 -140 0 -73 54
-141 128 -162 20 -5 124 -10 230 -10 l192 0 0 -182 c1 -255 11 -291 91 -346
45 -31 129 -28 178 8 63 44 71 79 71 312 l0 206 218 4 c195 3 220 5 251 23 65
38 97 110 81 182 -12 51 -39 84 -90 111 -42 21 -56 22 -252 22 l-208 0 0 208
c0 196 -1 210 -22 252 -32 61 -66 83 -135 87 -46 3 -66 -1 -94 -18z"/>
<path d="M3435 3656 c-16 -8 -467 -452 -1002 -988 -870 -871 -972 -977 -979
-1011 -25 -141 102 -248 229 -193 19 8 436 419 1004 987 1055 1057 995 991
980 1085 -17 101 -137 163 -232 120z"/>
<path d="M2744 1830 c-18 -4 -45 -17 -62 -28 -91 -65 -79 -225 21 -280 29 -16
82 -17 637 -17 l605 0 38 24 c72 44 99 150 56 220 -28 46 -56 68 -106 80 -48
13 -1138 14 -1189 1z"/>
</g>
</svg>
