<?xml version="1.0" standalone="no"?>
<!DOCTYPE svg PUBLIC "-//W3C//DTD SVG 20010904//EN"
 "http://www.w3.org/TR/2001/REC-SVG-20010904/DTD/svg10.dtd">
<svg version="1.0" xmlns="http://www.w3.org/2000/svg"
 width="512.000000pt" height="512.000000pt" viewBox="0 0 512.000000 512.000000"
 preserveAspectRatio="xMidYMid meet">

<g transform="translate(0.000000,512.000000) scale(0.100000,-0.100000)"
fill="#000000" stroke="none">
<path d="M1276 5097 c-21 -12 -47 -38 -57 -57 -18 -33 -19 -81 -19 -1087 l0
-1052 -32 19 c-40 23 -122 53 -208 76 -92 25 -329 25 -423 0 -315 -83 -515
-288 -534 -546 -12 -170 74 -346 225 -459 114 -86 226 -133 372 -157 357 -59
709 92 844 362 58 116 56 70 56 1277 l0 1109 63 -79 c254 -317 417 -583 493
-808 32 -95 38 -123 38 -205 1 -75 -4 -109 -22 -162 -27 -78 -113 -220 -180
-296 -95 -107 -110 -158 -72 -232 13 -26 34 -47 60 -60 88 -45 147 -18 254
113 133 164 218 329 252 487 80 376 -208 944 -823 1622 -63 69 -129 134 -148
142 -46 22 -93 20 -139 -7z m-394 -2391 c98 -21 175 -62 238 -125 107 -108
107 -214 0 -322 -185 -186 -555 -186 -740 0 -75 76 -94 137 -68 225 16 55 106
144 182 180 113 54 258 69 388 42z"/>
<path d="M3878 3746 c-581 -249 -1071 -462 -1089 -472 -17 -11 -40 -35 -50
-54 -18 -33 -19 -80 -19 -1085 l0 -1051 -66 32 c-138 67 -341 97 -506 75 -469
-63 -748 -453 -576 -809 55 -115 172 -227 303 -291 243 -118 536 -120 780 -5
162 76 273 191 336 349 l24 60 5 979 5 979 895 383 c492 211 896 384 897 384
2 0 3 -278 3 -618 l0 -618 -67 32 c-116 57 -227 79 -388 78 -195 0 -322 -36
-468 -130 -251 -163 -343 -439 -225 -682 127 -264 484 -423 831 -371 310 46
537 226 602 475 13 51 15 234 15 1379 l0 1320 -23 39 c-26 46 -77 76 -127 76
-23 -1 -381 -149 -1092 -454z m940 -62 l-3 -137 -895 -383 c-492 -211 -896
-384 -898 -384 -1 0 -1 61 0 136 l3 137 890 382 c490 211 894 383 898 384 4 1
6 -60 5 -135z m-316 -1898 c98 -21 175 -62 238 -125 107 -108 107 -214 0 -322
-116 -117 -311 -165 -502 -125 -177 38 -318 164 -318 286 0 120 140 247 314
285 81 18 186 18 268 1z m-2100 -900 c98 -21 175 -62 238 -125 107 -108 107
-214 0 -322 -185 -186 -555 -186 -740 0 -54 55 -80 106 -80 161 0 120 140 247
314 285 81 18 186 18 268 1z"/>
</g>
</svg>
