<?xml version="1.0" standalone="no"?>
<!DOCTYPE svg PUBLIC "-//W3C//DTD SVG 20010904//EN"
 "http://www.w3.org/TR/2001/REC-SVG-20010904/DTD/svg10.dtd">
<svg version="1.0" xmlns="http://www.w3.org/2000/svg"
 width="512.000000pt" height="512.000000pt" viewBox="0 0 512.000000 512.000000"
 preserveAspectRatio="xMidYMid meet">

<g transform="translate(0.000000,512.000000) scale(0.100000,-0.100000)"
fill="#000000" stroke="none">
<path d="M2430 5067 c-250 -138 -2000 -1142 -2000 -1147 0 -3 479 -279 1065
-613 l1065 -608 1065 608 c586 334 1065 610 1065 613 0 5 -1750 1009 -2000
1147 -64 36 -106 53 -130 53 -24 0 -66 -17 -130 -53z"/>
<path d="M270 2442 l0 -1218 1070 -611 1070 -612 0 1223 0 1222 -1063 607
c-584 334 -1065 607 -1070 607 -4 0 -7 -548 -7 -1218z"/>
<path d="M3773 3052 l-1063 -607 0 -1222 0 -1222 1070 612 1070 611 0 1218 c0
670 -3 1218 -7 1218 -5 0 -486 -274 -1070 -608z"/>
</g>
</svg>
