<?xml version="1.0" standalone="no"?>
<!DOCTYPE svg PUBLIC "-//W3C//DTD SVG 20010904//EN"
 "http://www.w3.org/TR/2001/REC-SVG-20010904/DTD/svg10.dtd">
<svg version="1.0" xmlns="http://www.w3.org/2000/svg"
 width="500.000000pt" height="500.000000pt" viewBox="0 0 500.000000 500.000000"
 preserveAspectRatio="xMidYMid meet">

<g transform="translate(0.000000,500.000000) scale(0.100000,-0.100000)"
fill="#000000" stroke="none">
<path d="M2870 4974 c-45 -9 -94 -26 -140 -49 -73 -36 -2470 -1791 -2518
-1843 -53 -58 -107 -163 -123 -239 -16 -77 -6 -204 20 -274 12 -31 215 -364
452 -740 237 -376 559 -891 717 -1144 211 -338 302 -475 344 -518 139 -141
374 -185 552 -104 52 24 2481 1670 2573 1744 51 40 114 134 143 211 28 72 37
209 20 283 -7 30 -24 76 -37 103 -34 68 -1497 2350 -1541 2405 -44 55 -133
113 -215 141 -61 20 -196 34 -247 24z m-6 -136 c-10 -13 -38 -44 -61 -70 -48
-53 -52 -69 -23 -98 37 -37 59 -26 162 83 66 70 98 97 101 87 3 -8 15 -114 27
-235 11 -121 77 -784 145 -1474 69 -689 125 -1268 125 -1287 0 -21 -5 -34 -13
-34 -7 0 -397 127 -867 283 l-854 282 -26 147 c-15 81 -33 154 -40 163 -19 23
-67 19 -85 -8 -13 -21 -12 -34 6 -135 12 -62 20 -115 17 -117 -4 -5 -1133 367
-1143 377 -3 3 18 14 47 23 66 22 88 40 88 75 0 57 -36 63 -153 24 -43 -14
-81 -24 -83 -21 -9 9 22 60 63 104 21 23 463 352 983 731 520 379 1064 776
1209 882 228 167 343 239 385 240 5 0 1 -10 -10 -22z m344 -65 c41 -31 19 3
876 -1336 373 -583 687 -1079 697 -1103 22 -48 38 -174 22 -174 -5 0 -56 16
-113 35 -94 32 -106 34 -126 20 -12 -8 -25 -23 -29 -34 -12 -38 12 -59 100
-87 46 -16 83 -29 81 -31 -5 -5 -1234 -273 -1251 -273 -12 0 -15 14 -15 61 0
50 -268 2805 -284 2917 -3 17 -2 32 1 32 3 0 22 -12 41 -27z m-1455 -2564
c848 -281 1543 -513 1545 -514 10 -9 -94 -133 -648 -776 -338 -392 -620 -719
-627 -728 -17 -23 -21 -14 -39 82 -18 99 -30 119 -67 119 -59 1 -67 -27 -42
-155 8 -43 15 -83 15 -88 0 -13 -96 26 -142 58 -61 41 -86 77 -348 498 -134
215 -451 719 -704 1120 -320 508 -467 750 -483 795 -25 72 -28 100 -12 100 6
0 705 -230 1552 -511z m2932 -305 c-22 -18 -438 -305 -925 -637 -487 -331
-955 -650 -1040 -708 -440 -300 -531 -361 -534 -358 -2 2 259 308 580 679 320
371 599 703 620 738 36 62 37 62 83 62 25 1 307 59 626 130 319 70 591 128
605 129 24 0 23 -2 -15 -35z"/>
<path d="M2477 4431 c-95 -97 -117 -125 -117 -148 0 -36 16 -53 50 -53 32 0
25 -5 153 126 112 116 126 144 91 178 -33 34 -57 20 -177 -103z"/>
<path d="M2185 4122 c-39 -27 -235 -244 -235 -259 0 -26 20 -49 48 -58 19 -5
37 7 109 77 96 93 163 173 163 194 0 34 -58 66 -85 46z"/>
<path d="M1785 3700 c-11 -4 -68 -60 -127 -123 -112 -120 -126 -147 -92 -181
33 -33 56 -20 176 106 89 93 118 129 118 149 0 39 -37 63 -75 49z"/>
<path d="M1310 3255 c-92 -30 -112 -44 -112 -78 0 -56 35 -69 110 -43 48 17
43 26 68 -114 19 -112 34 -140 72 -140 56 0 63 31 36 170 -8 45 -13 84 -11 86
2 3 16 0 31 -6 32 -12 60 -1 76 31 20 36 -10 64 -97 93 -43 14 -83 26 -88 26
-6 -1 -44 -12 -85 -25z"/>
<path d="M812 3090 c-79 -27 -150 -54 -158 -61 -23 -19 -17 -66 11 -85 23 -15
32 -13 180 36 85 28 162 58 170 67 32 32 2 95 -45 92 -8 0 -80 -22 -158 -49z"/>
<path d="M1766 3124 c-19 -19 -20 -44 -3 -67 12 -16 294 -117 328 -117 40 0
64 64 34 93 -18 19 -280 107 -317 107 -15 0 -34 -7 -42 -16z"/>
<path d="M2326 2944 c-20 -19 -21 -58 -2 -77 16 -16 292 -107 323 -107 11 0
28 9 38 20 15 16 17 26 9 48 -8 24 -26 33 -159 79 -165 57 -186 61 -209 37z"/>
<path d="M2894 2772 c-6 -4 -16 -17 -23 -30 -24 -46 3 -65 174 -122 148 -49
157 -51 180 -36 28 19 34 66 11 85 -14 12 -302 111 -321 111 -5 0 -15 -4 -21
-8z"/>
<path d="M3436 2574 c-21 -21 -20 -57 2 -76 17 -16 296 -108 324 -108 21 0 48
33 48 57 0 33 -28 48 -175 97 -153 50 -176 54 -199 30z"/>
<path d="M3996 2394 c-19 -19 -21 -68 -3 -81 20 -16 290 -103 319 -103 37 0
62 37 49 73 -8 21 -31 32 -163 76 -84 28 -161 51 -170 51 -9 0 -24 -7 -32 -16z"/>
<path d="M1572 2114 c-13 -9 -22 -26 -22 -41 0 -37 49 -303 60 -323 13 -24 43
-30 72 -16 19 10 23 20 22 56 0 60 -45 298 -58 314 -18 23 -50 27 -74 10z"/>
<path d="M1670 1530 c-11 -11 -20 -25 -20 -31 0 -38 55 -308 66 -326 17 -27
65 -31 84 -8 18 21 16 47 -14 209 -26 141 -42 176 -78 176 -10 0 -27 -9 -38
-20z"/>
<path d="M1770 955 c-17 -21 -16 -46 14 -209 28 -154 43 -184 90 -172 48 12
50 34 21 199 -15 84 -34 162 -41 175 -17 26 -65 30 -84 7z"/>
</g>
</svg>
