<?xml version="1.0" standalone="no"?>
<!DOCTYPE svg PUBLIC "-//W3C//DTD SVG 20010904//EN"
 "http://www.w3.org/TR/2001/REC-SVG-20010904/DTD/svg10.dtd">
<svg version="1.0" xmlns="http://www.w3.org/2000/svg"
 width="512.000000pt" height="512.000000pt" viewBox="0 0 512.000000 512.000000"
 preserveAspectRatio="xMidYMid meet">

<g transform="translate(0.000000,512.000000) scale(0.100000,-0.100000)"
fill="#000000" stroke="none">
<path d="M2380 5114 c-19 -2 -78 -9 -130 -14 -330 -36 -695 -160 -990 -336
-375 -224 -680 -529 -904 -904 -175 -292 -291 -632 -338 -990 -16 -123 -16
-497 0 -620 82 -623 356 -1150 820 -1581 256 -239 575 -425 922 -539 274 -91
491 -124 800 -124 228 0 329 9 530 50 689 141 1304 583 1674 1204 175 292 291
632 338 990 16 123 16 497 0 620 -47 358 -163 698 -338 990 -224 375 -529 680
-904 904 -289 173 -634 291 -980 336 -88 12 -438 21 -500 14z m483 -220 c866
-103 1631 -724 1920 -1559 92 -268 128 -486 128 -775 0 -289 -36 -507 -128
-775 -233 -673 -775 -1215 -1448 -1448 -268 -92 -486 -128 -775 -128 -289 0
-507 36 -775 128 -673 233 -1215 775 -1448 1448 -92 268 -128 486 -128 775 0
289 36 507 128 775 231 668 772 1212 1436 1444 364 127 694 162 1090 115z"/>
<path d="M2511 4687 c-57 -34 -68 -109 -21 -155 28 -29 32 -30 167 -38 76 -4
145 -7 153 -5 95 13 115 142 28 184 -50 25 -291 35 -327 14z"/>
<path d="M3239 4532 c-26 -23 -32 -36 -32 -70 0 -27 7 -50 19 -63 10 -11 82
-51 160 -88 574 -276 964 -780 1079 -1396 13 -73 35 -299 35 -366 0 -38 52
-89 90 -89 80 0 110 44 110 157 0 287 -97 661 -243 933 -115 215 -215 350
-396 531 -192 191 -404 337 -639 439 -111 48 -141 50 -183 12z"/>
<path d="M471 2646 c-13 -7 -30 -24 -37 -37 -37 -68 3 -423 77 -670 197 -664
764 -1231 1428 -1428 250 -74 597 -114 670 -77 57 30 68 108 22 154 -28 28
-35 29 -148 36 -517 31 -969 234 -1313 592 -335 348 -517 771 -546 1267 -7
113 -8 120 -36 148 -33 32 -76 38 -117 15z"/>
</g>
</svg>
