<?xml version="1.0" standalone="no"?>
<!DOCTYPE svg PUBLIC "-//W3C//DTD SVG 20010904//EN"
 "http://www.w3.org/TR/2001/REC-SVG-20010904/DTD/svg10.dtd">
<svg version="1.0" xmlns="http://www.w3.org/2000/svg"
 width="512.000000pt" height="512.000000pt" viewBox="0 0 512.000000 512.000000"
 preserveAspectRatio="xMidYMid meet">

<g transform="translate(0.000000,512.000000) scale(0.100000,-0.100000)"
fill="#000000" stroke="none">
<path d="M2491 5102 c-19 -9 -48 -34 -65 -55 l-31 -39 0 -342 0 -342 27 -41
c65 -98 211 -98 276 0 l27 41 0 342 0 342 -31 39 c-37 46 -86 73 -134 73 -19
0 -50 -8 -69 -18z"/>
<path d="M860 4429 c-32 -13 -68 -47 -86 -81 -18 -35 -18 -112 0 -146 22 -41
467 -480 499 -492 97 -36 204 25 223 127 15 82 8 92 -239 342 -128 128 -246
240 -264 247 -37 16 -97 17 -133 3z"/>
<path d="M4125 4426 c-16 -7 -134 -119 -262 -247 -247 -250 -254 -260 -239
-342 19 -102 126 -163 223 -127 32 12 477 451 499 492 35 67 9 161 -58 211
-34 26 -122 33 -163 13z"/>
<path d="M2400 3954 c-191 -35 -252 -52 -381 -109 -144 -63 -259 -142 -383
-263 -212 -207 -344 -468 -387 -761 -17 -118 -6 -372 20 -476 63 -253 144
-399 379 -678 137 -163 193 -240 237 -326 51 -102 57 -129 64 -302 6 -161 7
-166 34 -202 53 -69 33 -67 575 -67 l489 0 34 23 c67 45 75 68 82 240 5 137 8
162 33 223 50 125 102 201 313 454 197 235 283 395 342 635 26 104 37 358 20
476 -33 225 -127 448 -266 629 -50 65 -181 195 -245 243 -149 113 -340 200
-530 242 -73 16 -373 29 -430 19z m367 -350 c362 -75 657 -359 749 -722 61
-241 33 -483 -82 -700 -48 -92 -64 -113 -205 -282 -270 -323 -376 -519 -395
-725 l-7 -75 -273 0 -274 0 0 58 c0 89 -34 205 -94 327 -60 120 -135 225 -291
410 -140 167 -159 191 -204 276 -260 483 -78 1079 409 1342 106 57 205 87 375
111 51 7 215 -4 292 -20z"/>
<path d="M197 2795 c-141 -50 -157 -233 -27 -302 42 -23 48 -23 365 -23 318 0
322 0 366 23 135 72 111 268 -38 306 -65 17 -618 14 -666 -4z"/>
<path d="M4250 2797 c-49 -16 -73 -36 -99 -77 -46 -77 -15 -183 68 -227 44
-23 48 -23 366 -23 317 0 323 0 365 23 134 71 110 266 -38 307 -53 14 -617 12
-662 -3z"/>
<path d="M1265 1561 c-49 -23 -479 -453 -495 -494 -41 -110 37 -227 152 -227
27 0 61 6 76 14 41 22 480 467 492 499 28 75 -8 166 -80 204 -52 28 -92 29
-145 4z"/>
<path d="M3710 1557 c-72 -38 -108 -129 -80 -204 12 -32 451 -477 492 -499 15
-8 49 -14 76 -14 115 0 193 117 152 227 -16 41 -446 471 -495 494 -53 25 -93
24 -145 -4z"/>
<path d="M2064 709 c-42 -12 -101 -79 -110 -123 -11 -62 4 -107 51 -153 33
-31 55 -43 87 -48 24 -3 248 -5 498 -3 l455 3 38 24 c21 12 46 40 57 62 40 78
15 176 -57 220 l-38 24 -475 2 c-268 1 -489 -2 -506 -8z"/>
<path d="M2301 330 c-149 -37 -176 -236 -41 -307 42 -22 51 -23 294 -23 241 0
254 1 296 23 59 30 82 64 88 131 6 69 -22 123 -82 157 -40 23 -49 24 -281 26
-132 1 -255 -2 -274 -7z"/>
</g>
</svg>
