<?xml version="1.0" standalone="no"?>
<!DOCTYPE svg PUBLIC "-//W3C//DTD SVG 20010904//EN"
 "http://www.w3.org/TR/2001/REC-SVG-20010904/DTD/svg10.dtd">
<svg version="1.0" xmlns="http://www.w3.org/2000/svg"
 width="512.000000pt" height="512.000000pt" viewBox="0 0 512.000000 512.000000"
 preserveAspectRatio="xMidYMid meet">

<g transform="translate(0.000000,512.000000) scale(0.100000,-0.100000)"
fill="#000000" stroke="none">
<path d="M2320 5109 c-487 -46 -966 -239 -1344 -538 -183 -146 -397 -368 -417
-433 -34 -110 69 -218 179 -189 30 9 63 37 156 136 210 224 411 374 668 500
475 234 1006 294 1523 173 207 -48 477 -160 664 -277 97 -60 255 -177 290
-215 l24 -26 -127 0 c-140 0 -165 -7 -210 -60 -21 -25 -26 -42 -26 -83 0 -69
27 -112 85 -138 43 -19 64 -20 364 -17 305 3 321 4 347 24 15 11 37 33 48 48
20 26 21 40 21 366 0 326 -1 340 -21 366 -37 50 -72 69 -124 69 -52 0 -87 -19
-124 -69 -18 -23 -22 -47 -26 -151 l-5 -123 -85 70 c-161 132 -382 268 -581
358 -381 172 -857 249 -1279 209z"/>
<path d="M2473 3219 c-214 -36 -353 -184 -353 -379 0 -88 27 -163 81 -224 53
-60 89 -80 294 -162 167 -67 235 -109 235 -146 0 -27 -39 -75 -75 -92 -30 -14
-55 -17 -115 -14 -90 5 -142 27 -218 92 -67 57 -114 67 -177 36 -74 -36 -103
-117 -71 -193 32 -77 197 -187 332 -221 81 -21 234 -21 305 0 157 46 279 172
309 321 31 149 -49 313 -195 398 -26 16 -127 61 -224 100 -183 74 -190 79
-177 131 10 39 58 57 141 52 60 -3 85 -10 147 -42 68 -35 81 -38 132 -34 41 3
63 11 82 29 85 80 67 182 -45 257 -126 84 -265 115 -408 91z"/>
<path d="M70 3198 c-72 -48 -70 -30 -70 -638 0 -499 2 -548 18 -580 50 -100
197 -108 259 -13 14 22 19 55 23 167 l5 141 142 -161 c182 -207 190 -214 256
-214 84 0 133 41 151 127 11 51 -21 105 -152 253 l-120 135 52 28 c155 84 245
262 216 425 -24 139 -109 251 -237 314 l-68 33 -220 3 c-217 3 -221 3 -255
-20z m439 -303 c16 -14 35 -41 41 -60 10 -30 9 -41 -7 -72 -26 -53 -71 -73
-165 -73 l-78 0 0 115 0 115 89 0 c81 0 92 -2 120 -25z"/>
<path d="M1179 3197 c-72 -48 -70 -27 -67 -649 3 -548 3 -557 24 -585 12 -15
36 -37 55 -48 32 -19 52 -20 289 -20 248 0 256 1 291 23 90 55 92 198 4 252
-29 18 -49 20 -199 20 l-166 0 0 110 0 110 143 0 c156 0 191 10 232 64 28 38
28 134 0 172 -41 54 -76 64 -232 64 l-143 0 0 104 0 104 163 4 c147 3 166 6
199 26 89 55 91 198 3 252 -30 19 -49 20 -297 20 -259 0 -266 -1 -299 -23z"/>
<path d="M3370 3213 c-8 -3 -26 -15 -38 -27 -53 -47 -52 -34 -52 -626 0 -592
-1 -578 52 -627 12 -12 43 -26 68 -32 58 -14 432 -14 490 0 126 29 161 169 65
259 -26 24 -31 25 -201 28 l-174 3 0 110 0 109 140 0 c119 0 147 3 178 19 43
22 82 84 82 131 0 47 -39 109 -82 131 -31 16 -59 19 -178 19 l-140 0 0 105 0
105 133 0 c149 1 211 11 245 43 71 66 69 159 -3 227 l-27 25 -271 2 c-150 1
-279 -1 -287 -4z"/>
<path d="M4319 3197 c-93 -62 -88 -193 10 -251 21 -12 60 -20 116 -24 l84 -5
3 -456 c3 -436 4 -457 23 -489 57 -95 195 -98 256 -6 18 27 19 55 19 490 l0
461 89 5 c62 4 100 11 122 24 98 58 103 189 10 251 -34 23 -37 23 -366 23
-329 0 -332 0 -366 -23z"/>
<path d="M615 1160 c-82 -41 -80 -32 -83 -410 -3 -385 -3 -385 81 -428 58 -30
113 -23 163 20 43 38 54 79 54 206 l0 102 103 -83 c368 -298 808 -484 1297
-549 144 -19 509 -16 655 5 536 78 1025 313 1405 674 152 144 237 244 250 294
24 87 -45 181 -133 183 -67 1 -99 -19 -182 -115 -276 -319 -692 -575 -1115
-685 -628 -163 -1311 -46 -1840 317 -99 68 -224 166 -228 179 -2 6 48 10 125
10 110 0 133 3 161 20 51 31 74 76 69 136 -4 61 -28 97 -83 124 -38 19 -60 20
-350 20 -290 0 -311 -1 -349 -20z"/>
</g>
</svg>
