<?xml version="1.0" standalone="no"?>
<!DOCTYPE svg PUBLIC "-//W3C//DTD SVG 20010904//EN"
 "http://www.w3.org/TR/2001/REC-SVG-20010904/DTD/svg10.dtd">
<svg version="1.0" xmlns="http://www.w3.org/2000/svg"
 width="512.000000pt" height="512.000000pt" viewBox="0 0 512.000000 512.000000"
 preserveAspectRatio="xMidYMid meet">

<g transform="translate(0.000000,512.000000) scale(0.100000,-0.100000)"
fill="#000000" stroke="none">
<path d="M2432 5109 c-74 -12 -168 -45 -232 -82 -246 -139 -1605 -926 -1640
-950 -154 -106 -271 -291 -306 -487 -19 -110 -19 -1950 0 -2060 28 -154 100
-294 206 -401 73 -73 94 -87 465 -301 1366 -790 1316 -762 1410 -793 138 -46
327 -43 474 8 84 30 1693 954 1786 1027 142 110 245 289 274 477 17 112 15
1944 -3 2043 -33 185 -134 356 -274 464 -91 69 -1703 995 -1780 1021 -121 43
-256 54 -380 34z m278 -315 c40 -15 1409 -799 1501 -859 46 -30 75 -97 65
-150 -4 -20 -21 -51 -39 -70 -39 -41 -1457 -861 -1537 -889 -75 -26 -205 -26
-280 0 -80 29 -1498 849 -1537 889 -18 19 -35 49 -39 70 -10 53 19 120 65 150
20 12 356 207 746 432 640 369 752 430 820 447 42 10 191 -2 235 -20z m-1240
-1778 c802 -462 831 -481 889 -597 16 -33 35 -83 41 -112 7 -36 10 -326 8
-919 -3 -858 -3 -867 -24 -894 -34 -46 -70 -67 -117 -68 -37 -1 -65 12 -203
91 -1364 785 -1317 757 -1385 824 -73 71 -111 140 -128 233 -7 40 -11 335 -11
901 l0 841 23 44 c26 51 73 80 132 80 36 0 138 -56 775 -424z m3030 406 c22
-12 44 -35 58 -62 l22 -44 0 -841 c0 -566 -4 -861 -11 -901 -17 -92 -55 -162
-128 -234 -60 -59 -137 -106 -792 -482 -398 -230 -739 -422 -756 -428 -63 -22
-146 23 -172 93 -8 19 -11 304 -11 886 0 933 -1 916 57 1023 50 92 118 142
448 333 171 98 503 290 740 427 467 270 468 270 545 230z"/>
</g>
</svg>
