<?xml version="1.0" ?><!-- Uploaded to: SVG Repo, www.svgrepo.com, Generator: SVG Repo Mixer Tools -->
<svg fill="#000000" width="800px" height="800px" viewBox="0 0 100 100" data-name="Layer 1" id="Layer_1" xmlns="http://www.w3.org/2000/svg"><title/><path d="M50,5A45,45,0,1,0,95,50,45.00058,45.00058,0,0,0,50,5ZM19.59448,19.59448A42.99068,42.99068,0,0,1,92.82184,46.1806c-.08295-.06793-.15088-.14068-.23779-.20739a1,1,0,0,0-1.2165,1.58752,5.52943,5.52943,0,0,1,1.18756,1.18677.97211.97211,0,0,0,.42145.3266c.00653.309.02344.61535.02344.9259a2.04347,2.04347,0,0,1-.63708,1.34625,13.4011,13.4011,0,0,1-5.08332,2.90253,73.77635,73.77635,0,0,1-15.508,3.43475A170.6829,170.6829,0,0,1,50,59c-12.087.001-23.03278-1.11688-30.891-2.904A38.14808,38.14808,0,0,1,9.93109,53.0116a8.54533,8.54533,0,0,1-2.294-1.66535A2.04318,2.04318,0,0,1,7,50c0-.31055.01691-.61694.02344-.9259a.97211.97211,0,0,0,.42145-.3266,5.528,5.528,0,0,1,1.18756-1.18677A1,1,0,0,0,7.416,45.97321H7.41589c-.08691.06665-.15478.13946-.23773.20733A42.85482,42.85482,0,0,1,19.59448,19.59448Zm60.811,60.811A42.98816,42.98816,0,0,1,7.16205,53.60712,18.72517,18.72517,0,0,0,12.01978,56.122a75.60894,75.60894,0,0,0,15.94946,3.54468A172.6715,172.6715,0,0,0,50,61c12.21332-.0011,23.26752-1.1217,31.33423-2.9538a39.96337,39.96337,0,0,0,9.68133-3.27282,13.01557,13.01557,0,0,0,1.823-1.17365A42.85352,42.85352,0,0,1,80.40552,80.40552Z"/><path d="M53,41q1.00387,0,1.99.01013a1,1,0,1,0,.02057-1.99988Q54.01416,39,53,39a1,1,0,0,0,0,2Z"/><path d="M60.95575,41.16846q1.00479.04366,1.9859.0982a1,1,0,1,0,.111-1.99688q-.99316-.05521-2.01-.09943a1,1,0,1,0-.08685,1.99811Z"/><path d="M68.88525,41.71423q1.00388.09678,1.97431.20551a1,1,0,0,0,.22265-1.98755q-.98592-.1105-2.00512-.20874a1,1,0,1,0-.19184,1.99078Z"/><path d="M84.43451,44.46106q.98.28957,1.858.5965a1,1,0,0,0,.65967-1.88807q-.92752-.324-1.95081-.62646a1,1,0,0,0-.56689,1.918Z"/><path d="M76.748,42.73785v.00007q.99892.16872,1.94574.3515a1,1,0,1,0,.379-1.96375q-.97036-.18723-1.99151-.35986a1,1,0,1,0-.33319,1.972Z"/><path d="M21.30627,43.08942q.94648-.18265,1.94574-.3515a1,1,0,1,0-.33319-1.97205v-.00006q-1.021.17257-1.99151.35986a1,1,0,1,0,.379,1.96375Z"/><path d="M13.70746,45.05756q.87726-.30653,1.858-.5965a1,1,0,0,0-.56689-1.918q-1.02293.3024-1.95081.62646a1,1,0,1,0,.65967,1.88807Z"/><path d="M37.05829,41.26666q.981-.05447,1.986-.0982a1,1,0,0,0-.08685-1.99811q-1.01679.04413-2.01007.09943a1,1,0,1,0,.111,1.99688Z"/><path d="M29.14044,41.91974q.97018-.10867,1.97431-.20551a1,1,0,0,0-.1919-1.99078q-1.019.09823-2.00506.20874a1,1,0,1,0,.22265,1.98755Z"/><path d="M45.00989,41.01013Q45.996,41.00007,47,41a1,1,0,0,0,0-2q-1.01414,0-2.01062.01025a1,1,0,1,0,.02051,1.99988Z"/></svg>