<?xml version="1.0" standalone="no"?>
<!DOCTYPE svg PUBLIC "-//W3C//DTD SVG 20010904//EN"
 "http://www.w3.org/TR/2001/REC-SVG-20010904/DTD/svg10.dtd">
<svg version="1.0" xmlns="http://www.w3.org/2000/svg"
 width="512.000000pt" height="512.000000pt" viewBox="0 0 512.000000 512.000000"
 preserveAspectRatio="xMidYMid meet">

<g transform="translate(0.000000,512.000000) scale(0.100000,-0.100000)"
fill="#000000" stroke="none">
<path d="M3840 4381 c-65 -21 -123 -56 -167 -102 -17 -19 -95 -135 -172 -259
l-140 -224 -78 3 c-94 3 -168 -21 -231 -74 -45 -39 -162 -218 -162 -248 0 -10
14 -32 30 -49 l31 -30 -48 -52 c-71 -77 -1098 -1149 -1670 -1743 -277 -287
-512 -537 -523 -555 -59 -98 20 -192 213 -256 441 -145 1385 -182 2092 -81
357 51 570 136 604 242 6 17 81 435 167 927 86 492 158 896 159 898 1 1 14 -2
28 -9 42 -19 73 6 133 105 83 137 100 218 69 323 -8 27 -28 67 -43 89 l-29 39
143 229 c79 126 151 252 161 280 23 67 23 185 0 253 -30 86 -88 156 -183 219
-137 91 -259 115 -384 75z m251 -158 c158 -81 224 -197 188 -328 -10 -35 -270
-468 -288 -479 -8 -5 -494 299 -499 312 -4 13 243 408 282 451 45 49 119 81
187 81 46 0 71 -7 130 -37z m-748 -579 c82 -42 616 -381 648 -411 37 -35 59
-87 59 -141 0 -38 -63 -158 -81 -154 -11 3 -760 467 -871 540 l-38 25 22 36
c31 52 69 92 103 107 41 18 120 17 158 -2z m104 -550 c238 -148 363 -232 363
-242 0 -13 -291 -1701 -295 -1709 0 -1 -43 14 -95 34 -241 91 -706 145 -1240
145 -419 0 -789 -28 -1022 -77 -39 -9 -73 -14 -75 -11 -4 4 1987 2086 1995
2086 3 0 169 -102 369 -226z m-652 -1939 c198 -20 361 -48 485 -81 114 -30
203 -69 198 -86 -7 -20 -89 -56 -188 -83 -555 -148 -1705 -148 -2258 0 -101
27 -184 63 -190 83 -9 29 194 95 408 131 396 67 1094 83 1545 36z"/>
</g>
</svg>
