<?xml version="1.0" standalone="no"?>
<!DOCTYPE svg PUBLIC "-//W3C//DTD SVG 20010904//EN"
 "http://www.w3.org/TR/2001/REC-SVG-20010904/DTD/svg10.dtd">
<svg version="1.0" xmlns="http://www.w3.org/2000/svg"
 width="512.000000pt" height="512.000000pt" viewBox="0 0 512.000000 512.000000"
 preserveAspectRatio="xMidYMid meet">

<g transform="translate(0.000000,512.000000) scale(0.100000,-0.100000)"
fill="#000000" stroke="none">
<path d="M1632 4303 c-12 -10 -47 -83 -78 -163 -34 -84 -69 -156 -83 -171 -15
-14 -87 -49 -171 -83 -80 -31 -153 -66 -162 -78 -10 -11 -18 -33 -18 -48 0
-15 8 -37 18 -48 9 -12 82 -47 162 -78 84 -34 156 -69 171 -83 14 -15 49 -87
83 -171 31 -80 66 -153 78 -162 11 -10 33 -18 48 -18 15 0 37 8 48 18 12 9 47
82 78 162 34 84 69 156 83 171 15 14 87 49 171 83 80 31 153 66 163 78 9 11
17 33 17 48 0 15 -8 37 -17 48 -10 12 -83 47 -163 78 -84 34 -156 69 -171 83
-14 15 -49 87 -83 171 -31 80 -66 153 -78 163 -11 9 -33 17 -48 17 -15 0 -37
-8 -48 -17z m78 -350 c30 -73 90 -133 163 -163 31 -13 57 -27 57 -30 0 -3 -26
-17 -57 -30 -73 -30 -133 -90 -163 -163 -13 -31 -27 -57 -30 -57 -3 0 -17 26
-30 57 -30 73 -90 133 -163 163 -31 13 -57 27 -57 30 0 3 26 17 57 30 73 30
133 90 163 163 13 31 27 57 30 57 3 0 17 -26 30 -57z"/>
<path d="M2992 4063 c-12 -11 -62 -122 -118 -263 -129 -326 -108 -305 -434
-434 -141 -56 -252 -106 -262 -118 -23 -26 -23 -70 0 -96 10 -12 121 -62 262
-118 326 -129 305 -108 434 -434 56 -141 106 -252 118 -262 26 -23 70 -23 96
0 12 10 62 121 118 262 129 326 108 305 434 434 141 56 252 106 263 118 9 11
17 33 17 48 0 15 -8 37 -17 48 -11 12 -122 62 -263 118 -326 129 -305 108
-434 434 -56 141 -106 252 -118 263 -11 9 -33 17 -48 17 -15 0 -37 -8 -48 -17z
m109 -429 c90 -230 143 -283 373 -373 75 -30 136 -57 136 -61 0 -4 -62 -31
-137 -61 -231 -91 -282 -142 -374 -376 -29 -73 -55 -133 -59 -133 -4 0 -31 61
-61 136 -90 230 -143 283 -373 373 -75 30 -136 57 -136 61 0 4 61 31 136 61
230 90 283 143 373 373 30 75 57 136 61 136 4 0 31 -61 61 -136z"/>
<path d="M1072 2703 c-30 -27 -992 -1799 -992 -1828 0 -14 11 -37 25 -50 l24
-25 2431 0 2431 0 24 25 c14 13 25 36 25 50 0 29 -962 1801 -992 1828 -18 15
-47 17 -290 17 l-269 0 -24 -25 c-33 -32 -33 -78 0 -110 l24 -25 233 0 233 -1
430 -790 c237 -434 432 -794 433 -799 2 -7 -808 -10 -2258 -10 -1450 0 -2260
3 -2258 10 2 5 196 365 433 799 l430 790 713 1 713 0 24 25 c33 32 33 78 0
110 l-24 25 -749 0 c-700 0 -751 -1 -770 -17z"/>
<path d="M1223 2137 c-158 -158 -183 -187 -183 -213 0 -42 42 -84 84 -84 26 0
55 25 213 183 163 162 183 186 183 215 0 22 -9 41 -25 57 -16 16 -35 25 -57
25 -29 0 -53 -20 -215 -183z"/>
<path d="M1623 1977 c-88 -88 -103 -108 -103 -135 0 -44 38 -82 82 -82 27 0
47 15 135 103 88 88 103 108 103 135 0 22 -9 41 -25 57 -16 16 -35 25 -57 25
-27 0 -47 -15 -135 -103z"/>
<path d="M1183 1537 c-125 -125 -143 -147 -143 -175 0 -44 38 -82 82 -82 28 0
50 18 175 143 125 125 143 147 143 175 0 22 -9 41 -25 57 -16 16 -35 25 -57
25 -28 0 -50 -18 -175 -143z"/>
</g>
</svg>
