<?xml version="1.0" standalone="no"?>
<!DOCTYPE svg PUBLIC "-//W3C//DTD SVG 20010904//EN"
 "http://www.w3.org/TR/2001/REC-SVG-20010904/DTD/svg10.dtd">
<svg version="1.0" xmlns="http://www.w3.org/2000/svg"
 width="512.000000pt" height="512.000000pt" viewBox="0 0 512.000000 512.000000"
 preserveAspectRatio="xMidYMid meet">

<g transform="translate(0.000000,512.000000) scale(0.100000,-0.100000)"
fill="#000000" stroke="none">
<path d="M2499 4287 c-114 -59 -173 -173 -150 -292 20 -104 25 -94 -69 -121
-179 -52 -324 -135 -440 -253 -42 -42 -90 -102 -109 -133 l-32 -58 -50 0 c-69
0 -82 -17 -98 -126 -7 -49 -16 -94 -20 -100 -3 -6 -33 -33 -66 -59 -33 -26
-80 -67 -105 -91 l-45 -44 -85 83 c-150 146 -332 217 -553 217 -176 0 -307
-44 -420 -141 -151 -130 -257 -393 -257 -639 0 -325 337 -799 752 -1058 145
-90 590 -305 680 -327 13 -3 69 -54 124 -113 88 -93 102 -113 108 -152 14 -88
-80 -80 968 -80 915 0 928 0 948 20 12 12 20 33 20 55 0 38 -1 36 158 208 35
38 93 89 130 114 174 118 390 307 497 433 98 116 128 163 190 293 67 140 77
170 120 367 72 322 144 509 227 586 18 17 56 47 85 68 68 48 101 88 109 132 9
46 -15 98 -54 118 -32 16 -366 76 -425 76 -20 0 -48 -5 -63 -11 -16 -5 -144
-84 -286 -175 l-257 -166 -87 91 c-48 50 -115 114 -149 141 l-62 49 -16 97
c-20 120 -31 134 -106 134 l-56 0 -29 53 c-39 71 -195 223 -281 274 -82 50
-193 96 -289 123 -38 11 -70 21 -72 23 -2 1 3 21 11 42 36 101 9 212 -69 291
-92 91 -213 110 -327 51z m203 -113 c56 -29 92 -105 79 -166 -11 -45 -24 -68
-60 -102 -58 -56 -27 -109 69 -121 136 -16 293 -74 414 -152 71 -46 164 -132
185 -171 l12 -22 -771 0 c-583 0 -770 3 -770 12 0 6 37 48 83 92 127 123 295
203 508 239 87 15 109 30 109 74 0 13 -12 36 -26 50 -65 64 -81 135 -46 202
40 79 131 107 214 65z m896 -939 c7 -38 15 -80 17 -92 3 -11 35 -44 72 -71
133 -99 270 -257 337 -389 112 -222 119 -524 21 -854 -79 -265 -197 -461 -429
-712 -99 -107 -136 -154 -136 -172 l0 -25 -847 2 -847 3 -7 32 c-4 22 -39 66
-114 145 -231 243 -348 430 -435 698 -56 171 -74 286 -74 475 -1 176 13 246
74 381 58 128 175 277 290 369 132 105 129 101 145 195 8 47 15 86 15 88 0 1
429 1 953 0 l952 -3 13 -70z m-2748 -70 c131 -32 264 -116 349 -224 26 -32 27
-39 15 -55 -13 -18 -16 -17 -58 22 -193 178 -499 239 -713 142 -151 -68 -234
-223 -249 -461 -5 -72 -2 -110 11 -164 39 -156 142 -329 289 -482 140 -147
269 -236 580 -400 88 -47 164 -90 168 -96 4 -7 21 -36 38 -64 l31 -53 -58 26
c-125 55 -396 198 -480 254 -281 185 -540 507 -622 774 -46 149 -16 371 73
541 41 78 136 174 207 209 117 56 264 67 419 31z m3979 -50 c79 -13 146 -26
148 -29 3 -3 -17 -20 -43 -38 -170 -114 -258 -283 -344 -653 -55 -241 -79
-317 -134 -430 -68 -138 -130 -221 -268 -358 -147 -144 -157 -148 -107 -42 95
202 148 426 156 660 8 219 -19 354 -103 518 -20 38 -34 70 -32 71 22 16 490
313 508 323 14 7 36 11 50 8 14 -3 90 -16 169 -30z m-4034 -160 c101 -21 208
-77 278 -146 35 -34 57 -63 54 -71 -35 -79 -59 -144 -72 -194 -54 -205 -32
-517 56 -791 17 -52 29 -96 27 -98 -6 -6 -239 127 -336 192 -211 140 -411 388
-467 580 -33 113 -7 313 53 412 69 112 220 155 407 116z"/>
<path d="M1538 2789 c-69 -73 -136 -187 -171 -287 -27 -78 -30 -99 -29 -207 1
-199 68 -485 120 -511 31 -15 60 -7 79 23 15 22 14 30 -10 111 -61 207 -80
383 -53 496 21 87 70 181 142 270 62 76 70 109 34 138 -36 29 -60 22 -112 -33z"/>
</g>
</svg>
