<?xml version="1.0" standalone="no"?>
<!DOCTYPE svg PUBLIC "-//W3C//DTD SVG 20010904//EN"
 "http://www.w3.org/TR/2001/REC-SVG-20010904/DTD/svg10.dtd">
<svg version="1.0" xmlns="http://www.w3.org/2000/svg"
 width="512.000000pt" height="512.000000pt" viewBox="0 0 512.000000 512.000000"
 preserveAspectRatio="xMidYMid meet">

<g transform="translate(0.000000,512.000000) scale(0.100000,-0.100000)"
fill="#000000" stroke="none">
<path d="M2510 5106 c-14 -8 -35 -31 -47 -53 -12 -21 -544 -1131 -1183 -2468
-782 -1634 -1164 -2444 -1167 -2472 -5 -38 -2 -46 30 -78 l35 -35 2382 0 2382
0 35 35 c32 32 35 40 30 78 -3 28 -391 850 -1176 2490 -644 1347 -1178 2458
-1186 2471 -29 43 -88 57 -135 32z m1130 -2599 c588 -1230 1070 -2239 1070
-2242 0 -3 -10 -5 -22 -5 -11 0 -36 -11 -54 -25 l-33 -25 -2100 0 c-1291 0
-2102 4 -2106 9 -7 13 2158 4541 2167 4532 5 -4 489 -1013 1078 -2244z"/>
<path d="M2503 4590 c-41 -25 -53 -67 -53 -193 0 -107 13 -154 51 -181 55 -38
140 -6 159 62 13 48 13 206 -1 255 -11 42 -56 77 -99 77 -14 0 -39 -9 -57 -20z"/>
<path d="M2515 3996 c-51 -22 -60 -53 -60 -203 l0 -135 33 -29 c70 -63 163
-24 177 75 11 71 1 227 -15 254 -15 22 -67 52 -92 52 -7 -1 -26 -7 -43 -14z"/>
<path d="M2533 3403 c-36 -7 -71 -51 -79 -99 -10 -69 0 -236 16 -261 36 -56
115 -62 164 -14 l31 31 0 140 0 140 -30 29 c-31 30 -64 41 -102 34z"/>
<path d="M2497 2779 c-39 -30 -50 -81 -45 -205 4 -127 18 -157 78 -175 44 -13
95 6 120 43 16 27 26 183 15 254 -13 92 -102 136 -168 83z"/>
<path d="M2498 2177 c-15 -12 -32 -35 -38 -50 -13 -37 -13 -211 1 -260 11 -42
56 -77 99 -77 43 0 88 35 99 77 14 49 14 207 1 255 -20 72 -107 101 -162 55z"/>
<path d="M2513 1585 c-36 -15 -48 -34 -59 -90 -5 -29 -19 -51 -52 -82 -43 -40
-44 -44 -39 -85 4 -31 14 -51 37 -70 35 -32 63 -35 121 -11 38 15 43 15 69 0
94 -56 204 39 155 133 -9 17 -29 39 -45 48 -22 13 -29 26 -34 59 -7 56 -30 89
-68 102 -39 14 -46 13 -85 -4z"/>
<path d="M2004 1204 c-155 -82 -197 -109 -215 -138 -28 -43 -19 -93 22 -130
46 -41 88 -33 227 45 114 63 142 91 142 139 0 37 -30 81 -65 96 -46 19 -54 18
-111 -12z"/>
<path d="M2992 1219 c-36 -11 -72 -59 -72 -97 0 -51 28 -79 144 -146 133 -76
167 -82 216 -38 19 16 33 40 36 62 9 57 -25 94 -146 160 -121 67 -134 71 -178
59z"/>
<path d="M1363 854 c-139 -73 -159 -87 -173 -128 -15 -45 -4 -81 32 -111 47
-40 84 -34 215 38 118 63 153 96 153 145 0 30 -26 79 -48 90 -51 27 -70 23
-179 -34z"/>
<path d="M3585 905 c-5 -2 -23 -6 -38 -9 -31 -7 -67 -58 -67 -94 0 -51 28 -79
144 -146 133 -76 167 -82 216 -38 40 35 48 85 21 128 -26 43 -244 168 -276
159z"/>
<path d="M4145 584 c-5 -1 -23 -5 -38 -8 -31 -7 -67 -58 -67 -94 0 -51 28 -79
144 -146 118 -67 152 -77 200 -55 26 12 56 63 56 96 0 42 -39 80 -137 136
-105 59 -142 76 -158 71z"/>
<path d="M760 527 c-136 -76 -149 -85 -159 -122 -13 -47 -3 -82 31 -110 47
-40 84 -34 214 35 62 34 122 73 134 87 24 31 26 73 5 113 -35 69 -97 68 -225
-3z"/>
</g>
</svg>
