<?xml version="1.0" standalone="no"?>
<!DOCTYPE svg PUBLIC "-//W3C//DTD SVG 20010904//EN"
 "http://www.w3.org/TR/2001/REC-SVG-20010904/DTD/svg10.dtd">
<svg version="1.0" xmlns="http://www.w3.org/2000/svg"
 width="512.000000pt" height="512.000000pt" viewBox="0 0 512.000000 512.000000"
 preserveAspectRatio="xMidYMid meet">

<g transform="translate(0.000000,512.000000) scale(0.100000,-0.100000)"
fill="#000000" stroke="none">
<path d="M27 5102 c-16 -17 -17 -115 -17 -1210 0 -1179 0 -1192 20 -1212 19
-19 33 -20 315 -20 l295 0 0 -960 0 -960 21 -21 c21 -21 23 -21 463 -15 242 3
579 9 749 12 l307 6 0 -344 c0 -321 1 -346 18 -361 17 -16 115 -17 1210 -17
1179 0 1192 0 1212 20 20 20 20 33 20 1060 l0 1040 218 0 c199 0 220 2 235 18
16 17 17 115 17 1210 0 1179 0 1192 -20 1212 -20 20 -33 20 -1245 20 l-1225 0
0 250 c0 237 -1 251 -20 270 -20 20 -33 20 -1288 20 -1217 0 -1270 -1 -1285
-18z m904 -118 c-13 -9 -32 -35 -42 -58 -72 -159 82 -311 238 -235 106 51 126
218 35 289 -25 20 -24 20 439 20 l463 0 -26 -27 c-82 -86 -57 -233 48 -283
116 -57 254 28 254 155 0 49 -30 117 -61 139 -22 15 -17 16 99 16 l122 0 0
-1110 0 -1110 -390 0 -389 0 25 25 c54 54 67 130 35 200 -22 48 -44 69 -94 90
-50 21 -93 19 -145 -6 -105 -51 -130 -184 -51 -274 l31 -35 -458 0 -457 0 20
23 c90 98 61 241 -59 291 -114 47 -238 -35 -238 -158 0 -56 14 -93 48 -128
l26 -28 -137 0 -137 0 0 1110 0 1110 412 0 c384 0 411 -1 389 -16z m163 -107
c19 -26 19 -30 5 -55 -18 -33 -77 -43 -99 -17 -20 24 -15 67 10 87 30 25 58
20 84 -15z m1104 17 c25 -17 31 -71 10 -92 -21 -21 -75 -15 -92 10 -21 29 -20
40 5 72 23 30 45 33 77 10z m2792 -1544 l0 -1110 -340 0 -340 0 0 835 c0 822
0 835 -20 855 -20 20 -33 20 -845 20 l-825 0 0 255 0 255 1185 0 1185 0 0
-1110z m-800 365 l0 -115 -785 0 -785 0 0 115 0 115 785 0 785 0 0 -115z m0
-505 l0 -270 -785 0 -785 0 0 270 0 270 785 0 785 0 0 -270z m-3648 -232 c27
-22 30 -53 7 -81 -34 -44 -91 -31 -104 25 -12 49 55 88 97 56z m1120 -5 c37
-33 11 -103 -39 -103 -12 0 -32 9 -43 20 -55 55 24 135 82 83z m2528 -433 l0
-280 -1185 0 -1185 0 0 200 0 200 380 0 c444 0 420 -6 420 100 l0 60 785 0
785 0 0 -280z m-3010 106 c-18 -16 -390 -299 -407 -310 -10 -6 -13 29 -13 158
l0 166 217 0 c185 0 215 -2 203 -14z m518 -3 c-3 -14 -860 -679 -920 -714 -17
-9 -18 -1 -18 120 l0 129 317 241 318 241 153 0 c140 0 153 -2 150 -17z m-15
-424 c-25 -24 -912 -709 -918 -709 -3 0 -5 58 -5 129 l0 128 373 284 c204 156
415 316 467 356 l95 73 3 -122 c2 -106 0 -124 -15 -139z m2507 -344 l0 -265
-1185 0 -1185 0 0 265 0 265 1185 0 1185 0 0 -265z m330 -755 l0 -1000 -82 0
-83 0 -72 72 c-40 40 -73 77 -73 83 0 5 40 48 90 95 68 65 90 92 90 112 0 18
-21 48 -67 99 -37 41 -78 86 -92 102 l-25 27 92 88 c66 63 92 94 92 111 0 16
-28 52 -90 115 l-90 92 90 89 c58 57 90 95 90 109 -1 12 -31 54 -70 96 -58 64
-66 76 -52 84 41 21 42 30 42 333 l0 293 105 0 105 0 0 -1000z m-2837 639
c-10 -9 -216 -159 -458 -334 -242 -175 -446 -322 -453 -328 -10 -8 -12 17 -10
126 l3 135 465 360 465 360 3 -151 c2 -134 1 -153 -15 -168z m34 -251 c9 -7
46 -15 83 -18 l67 -5 -433 -330 -434 -330 -120 -3 -120 -3 0 63 1 63 467 338
467 338 3 -50 c2 -30 9 -55 19 -63z m463 -107 l0 -88 -117 -89 c-65 -49 -208
-157 -318 -240 l-200 -152 -175 -7 c-161 -6 -174 -5 -159 10 8 9 204 159 435
335 l419 319 58 1 57 0 0 -89z m274 2 l83 -87 -95 -91 c-82 -80 -93 -95 -87
-116 4 -13 46 -63 94 -112 l86 -87 -93 -88 c-50 -48 -92 -95 -92 -104 0 -18
23 -48 128 -162 l63 -69 -96 -97 c-52 -54 -95 -105 -95 -115 0 -9 30 -48 67
-86 l66 -69 -91 0 -92 0 0 685 0 685 35 0 c32 0 45 -10 119 -87z m416 2 l85
-85 -93 -93 c-50 -51 -92 -101 -92 -111 0 -10 41 -61 92 -113 l92 -94 -92 -87
c-51 -48 -92 -94 -92 -103 0 -18 37 -67 127 -167 l62 -68 -95 -95 c-51 -51
-94 -102 -94 -112 0 -10 27 -47 60 -81 33 -35 60 -66 60 -69 0 -4 -55 -7 -123
-7 l-123 0 -72 73 c-39 40 -72 77 -72 83 0 5 41 50 90 98 57 56 90 97 90 110
0 12 -37 62 -90 121 -49 55 -90 103 -90 106 0 3 41 43 90 88 68 63 90 89 90
108 0 19 -24 50 -90 117 l-90 92 90 89 c56 56 90 97 90 110 0 12 -14 34 -31
51 -17 16 -49 50 -71 77 l-40 47 124 0 123 0 85 -85z m420 0 l85 -86 -92 -90
c-61 -59 -93 -98 -93 -112 0 -14 33 -54 91 -113 l92 -92 -92 -87 c-63 -60 -91
-94 -91 -110 0 -15 32 -58 90 -121 49 -55 90 -103 90 -109 0 -5 -40 -48 -90
-95 -67 -64 -90 -91 -90 -110 1 -16 22 -48 60 -90 l59 -65 -121 -3 -122 -3
-78 78 -78 78 95 95 c52 52 95 103 95 112 0 10 -28 49 -62 88 -35 39 -76 87
-93 107 l-30 35 93 87 c65 62 92 94 92 110 0 17 -27 50 -92 112 l-93 88 93 94
c50 52 92 102 92 112 0 9 -31 50 -70 89 -38 40 -70 76 -70 79 0 4 55 7 123 7
l122 0 85 -85z m439 -2 l82 -88 -91 -85 c-119 -112 -119 -113 1 -228 l91 -87
-91 -87 c-67 -65 -91 -94 -91 -113 0 -18 27 -55 91 -126 l92 -101 -92 -92
c-114 -115 -115 -122 -29 -212 l61 -64 -134 0 -134 0 -77 77 -78 77 96 98 c81
82 95 100 89 120 -7 23 -19 37 -128 155 l-58 62 88 81 c92 84 109 110 94 138
-5 9 -48 55 -95 101 l-85 84 96 92 c114 109 114 107 10 213 l-71 72 141 0 141
0 81 -87z m434 0 l84 -87 -95 -91 c-82 -80 -93 -95 -87 -116 4 -13 46 -63 94
-112 l86 -87 -93 -88 c-50 -48 -92 -95 -92 -104 0 -18 23 -47 133 -167 l58
-63 -96 -99 c-114 -115 -113 -113 -22 -206 l61 -63 -141 0 -141 0 -71 78 -70
77 89 90 c69 70 90 97 90 118 0 20 -23 52 -91 127 l-91 100 91 86 c70 66 91
92 91 112 0 20 -22 49 -91 118 l-91 91 91 83 c117 107 118 114 19 216 l-71 74
136 0 136 0 84 -87z m-1989 -562 c-3 -3 -103 -7 -222 -9 l-216 -3 219 166 220
167 3 -158 c1 -86 0 -160 -4 -163z"/>
<path d="M485 4725 c-5 -2 -22 -6 -37 -9 -35 -8 -85 -50 -105 -89 -25 -50 -21
-129 11 -177 74 -112 248 -105 305 13 53 109 2 224 -114 256 -42 11 -44 12
-60 6z m55 -133 c25 -20 30 -63 10 -87 -19 -23 -76 -19 -94 7 -21 29 -20 40 5
72 24 31 48 33 79 8z"/>
<path d="M1565 4715 c-51 -18 -101 -72 -115 -124 -46 -170 165 -294 294 -173
137 129 -3 362 -179 297z m93 -121 c43 -30 22 -104 -30 -104 -61 0 -89 59 -48
100 24 24 48 25 78 4z"/>
<path d="M987 4505 c-76 -27 -117 -87 -117 -170 0 -132 135 -213 257 -154 80
39 120 159 78 238 -20 39 -69 78 -113 91 -47 13 -58 12 -105 -5z m103 -125
c11 -11 20 -28 20 -38 0 -31 -29 -62 -59 -62 -57 0 -84 50 -50 93 25 32 61 35
89 7z"/>
<path d="M2100 4504 c-74 -32 -110 -86 -110 -164 0 -191 247 -248 336 -78 17
32 18 105 3 145 -15 40 -48 73 -94 94 -48 22 -88 23 -135 3z m102 -121 c38
-34 13 -103 -38 -103 -29 0 -64 33 -64 60 0 26 34 60 62 60 12 0 30 -7 40 -17z"/>
<path d="M440 4204 c-72 -31 -112 -89 -113 -163 -2 -153 177 -238 290 -138 64
56 81 142 44 215 -24 47 -50 70 -98 88 -49 17 -80 17 -123 -2z m109 -131 c34
-43 7 -93 -50 -93 -30 0 -59 31 -59 62 0 26 36 58 64 58 15 0 33 -11 45 -27z"/>
<path d="M1564 4209 c-16 -5 -47 -25 -66 -45 -88 -87 -65 -230 45 -283 114
-55 244 18 255 143 11 131 -105 223 -234 185z m98 -126 c39 -35 11 -103 -43
-103 -30 0 -59 31 -59 62 0 25 35 58 62 58 12 0 30 -7 40 -17z"/>
<path d="M980 3959 c-32 -13 -78 -56 -96 -91 -18 -34 -18 -109 0 -151 28 -68
118 -115 191 -101 123 23 184 160 120 270 -41 69 -140 103 -215 73z m114 -131
c9 -12 16 -30 16 -38 0 -25 -38 -60 -64 -60 -46 0 -76 68 -46 105 19 23 76 19
94 -7z"/>
<path d="M2072 3944 c-80 -48 -109 -170 -59 -245 103 -153 327 -87 327 97 0
135 -150 219 -268 148z m129 -104 c12 -7 19 -21 19 -42 0 -61 -59 -89 -100
-48 -53 53 13 126 81 90z"/>
<path d="M422 3649 c-145 -72 -121 -286 39 -329 174 -47 295 178 163 302 -56
52 -130 62 -202 27z m128 -114 c30 -37 0 -105 -46 -105 -22 0 -64 42 -64 64 0
6 7 22 16 34 18 26 75 30 94 7z"/>
<path d="M1535 3647 c-105 -59 -122 -192 -36 -278 65 -65 157 -71 235 -16 35
25 65 89 66 139 1 135 -147 222 -265 155z m129 -113 c36 -36 6 -104 -46 -104
-25 0 -58 35 -58 62 0 49 69 78 104 42z"/>
<path d="M975 3391 c-70 -32 -105 -86 -105 -162 0 -148 177 -232 286 -137 47
42 64 77 64 138 0 58 -15 93 -57 133 -51 48 -121 59 -188 28z m115 -121 c11
-11 20 -29 20 -40 0 -27 -35 -60 -63 -60 -31 0 -59 32 -59 66 0 51 64 72 102
34z"/>
<path d="M2100 3399 c-32 -13 -78 -56 -96 -91 -22 -43 -18 -129 9 -169 64 -96
182 -114 268 -42 40 34 59 79 59 138 0 53 -16 88 -57 127 -48 46 -123 61 -183
37z m104 -125 c35 -34 8 -104 -41 -104 -28 0 -63 33 -63 60 0 48 71 78 104 44z"/>
<path d="M2740 4340 l0 -60 60 0 60 0 0 60 0 60 -60 0 -60 0 0 -60z"/>
<path d="M3410 4340 l0 -60 60 0 60 0 0 60 0 60 -60 0 -60 0 0 -60z"/>
<path d="M3930 4340 l0 -60 60 0 60 0 0 60 0 60 -60 0 -60 0 0 -60z"/>
<path d="M4530 4255 l0 -55 60 0 60 0 0 55 0 55 -60 0 -60 0 0 -55z"/>
<path d="M4030 4125 l0 -55 60 0 60 0 0 55 0 55 -60 0 -60 0 0 -55z"/>
<path d="M3060 4095 l0 -55 65 0 65 0 0 55 0 55 -65 0 -65 0 0 -55z"/>
<path d="M3610 4095 l0 -55 60 0 60 0 0 55 0 55 -60 0 -60 0 0 -55z"/>
<path d="M4450 3990 l0 -60 60 0 60 0 0 60 0 60 -60 0 -60 0 0 -60z"/>
<path d="M4732 3823 l3 -58 60 0 60 0 3 58 3 57 -66 0 -66 0 3 -57z"/>
<path d="M4450 3540 l0 -60 60 0 60 0 0 60 0 60 -60 0 -60 0 0 -60z"/>
<path d="M4670 3285 l0 -55 60 0 60 0 0 55 0 55 -60 0 -60 0 0 -55z"/>
<path d="M4792 2963 l3 -58 60 0 60 0 3 58 3 57 -66 0 -66 0 3 -57z"/>
<path d="M4400 2780 l0 -60 65 0 65 0 0 60 0 60 -65 0 -65 0 0 -60z"/>
<path d="M4730 2600 l0 -60 65 0 65 0 0 60 0 60 -65 0 -65 0 0 -60z"/>
<path d="M4450 2380 l0 -60 60 0 60 0 0 60 0 60 -60 0 -60 0 0 -60z"/>
<path d="M2740 3210 l0 -60 60 0 60 0 0 60 0 60 -60 0 -60 0 0 -60z"/>
<path d="M2980 3210 l0 -60 60 0 60 0 0 60 0 60 -60 0 -60 0 0 -60z"/>
<path d="M3222 3213 l3 -58 58 -3 57 -3 0 61 0 60 -60 0 -61 0 3 -57z"/>
<path d="M3462 3213 l3 -58 60 0 60 0 3 58 3 57 -66 0 -66 0 3 -57z"/>
<path d="M3710 3210 l0 -61 58 3 57 3 3 58 3 57 -61 0 -60 0 0 -60z"/>
<path d="M3950 3210 l0 -60 60 0 60 0 0 60 0 60 -60 0 -60 0 0 -60z"/>
<path d="M1930 2560 l0 -60 55 0 55 0 0 60 0 60 -55 0 -55 0 0 -60z"/>
<path d="M2157 2614 c-4 -4 -7 -31 -7 -61 l0 -53 60 0 61 0 -3 58 -3 57 -50 3
c-28 2 -54 0 -58 -4z"/>
<path d="M2380 2560 l0 -60 55 0 55 0 0 60 0 60 -55 0 -55 0 0 -60z"/>
<path d="M2610 2560 l0 -60 55 0 55 0 0 60 0 60 -55 0 -55 0 0 -60z"/>
<path d="M2837 2614 c-4 -4 -7 -31 -7 -61 l0 -53 60 0 61 0 -3 58 -3 57 -50 3
c-28 2 -54 0 -58 -4z"/>
<path d="M3060 2560 l0 -60 55 0 55 0 0 60 0 60 -55 0 -55 0 0 -60z"/>
<path d="M3290 2561 l0 -61 55 0 56 0 -3 58 -3 57 -52 3 -53 3 0 -60z"/>
<path d="M3517 2614 c-4 -4 -7 -31 -7 -61 l0 -53 60 0 61 0 -3 58 -3 57 -50 3
c-28 2 -54 0 -58 -4z"/>
<path d="M3740 2560 l0 -60 55 0 55 0 0 60 0 60 -55 0 -55 0 0 -60z"/>
<path d="M3967 2614 c-4 -4 -7 -31 -7 -61 l0 -53 60 0 61 0 -3 58 -3 57 -50 3
c-28 2 -54 0 -58 -4z"/>
<path d="M1930 1875 l0 -55 55 0 55 0 0 55 0 55 -55 0 -55 0 0 -55z"/>
<path d="M2150 1875 l0 -55 60 0 60 0 0 55 0 55 -60 0 -60 0 0 -55z"/>
<path d="M2380 1875 l0 -55 55 0 55 0 0 55 0 55 -55 0 -55 0 0 -55z"/>
<path d="M2610 1875 l0 -55 55 0 55 0 0 55 0 55 -55 0 -55 0 0 -55z"/>
<path d="M2830 1875 l0 -55 60 0 60 0 0 55 0 55 -60 0 -60 0 0 -55z"/>
<path d="M3060 1875 l0 -55 55 0 55 0 0 55 0 55 -55 0 -55 0 0 -55z"/>
<path d="M3290 1875 l0 -55 55 0 55 0 0 55 0 55 -55 0 -55 0 0 -55z"/>
<path d="M3510 1875 l0 -55 60 0 60 0 0 55 0 55 -60 0 -60 0 0 -55z"/>
<path d="M3740 1875 l0 -55 55 0 55 0 0 55 0 55 -55 0 -55 0 0 -55z"/>
<path d="M3960 1875 l0 -55 60 0 60 0 0 55 0 55 -60 0 -60 0 0 -55z"/>
</g>
</svg>
