<?xml version="1.0" standalone="no"?>
<!DOCTYPE svg PUBLIC "-//W3C//DTD SVG 20010904//EN"
 "http://www.w3.org/TR/2001/REC-SVG-20010904/DTD/svg10.dtd">
<svg version="1.0" xmlns="http://www.w3.org/2000/svg"
 width="512.000000pt" height="512.000000pt" viewBox="0 0 512.000000 512.000000"
 preserveAspectRatio="xMidYMid meet">

<g transform="translate(0.000000,512.000000) scale(0.100000,-0.100000)"
fill="#000000" stroke="none">
<path d="M2210 4259 c-439 -44 -814 -147 -1165 -319 -569 -279 -932 -692
-1026 -1165 -18 -91 -18 -339 0 -430 62 -312 248 -611 529 -846 402 -337 945
-552 1587 -631 149 -18 701 -18 850 0 641 79 1189 296 1585 630 125 105 158
141 166 179 5 26 1 37 -19 57 -44 44 -68 35 -171 -57 -391 -353 -883 -565
-1521 -653 -182 -25 -629 -30 -822 -10 -928 98 -1670 511 -1943 1081 -298 622
26 1293 820 1697 295 150 613 245 1025 305 173 25 735 25 915 0 806 -114 1433
-444 1754 -922 242 -360 258 -776 44 -1156 -26 -48 -48 -96 -48 -108 0 -30 44
-71 76 -71 36 0 73 43 127 147 104 202 140 346 141 563 1 95 -4 182 -13 225
-62 312 -248 611 -529 846 -395 330 -910 539 -1544 625 -136 19 -677 27 -818
13z"/>
<path d="M1229 3310 c-176 -116 -313 -293 -326 -422 -27 -262 353 -578 884
-734 243 -71 486 -104 773 -104 362 0 671 54 968 170 347 135 621 361 679 559
31 109 -6 229 -109 347 -97 112 -230 214 -280 214 -39 0 -68 -32 -68 -75 0
-31 7 -40 78 -93 140 -107 242 -238 242 -312 0 -39 -43 -120 -91 -173 l-44
-49 -99 62 c-294 185 -659 292 -1104 322 -281 19 -599 -10 -875 -82 -128 -33
-171 -51 -181 -75 -11 -31 -6 -61 15 -84 26 -28 62 -26 199 12 450 125 1019
110 1478 -39 112 -36 367 -157 416 -197 l28 -23 -58 -36 c-214 -131 -495 -227
-799 -274 -172 -27 -619 -27 -790 0 -310 48 -631 160 -814 285 l-44 29 54 35
c30 19 77 46 106 60 79 41 104 90 66 135 -33 38 -63 37 -147 -8 -43 -22 -105
-59 -138 -81 l-60 -41 -39 38 c-45 44 -99 144 -99 184 0 76 97 199 245 313 61
47 70 58 73 89 6 77 -61 100 -139 48z"/>
</g>
</svg>
