<?xml version="1.0" standalone="no"?>
<!DOCTYPE svg PUBLIC "-//W3C//DTD SVG 20010904//EN"
 "http://www.w3.org/TR/2001/REC-SVG-20010904/DTD/svg10.dtd">
<svg version="1.0" xmlns="http://www.w3.org/2000/svg"
 width="752.000000pt" height="752.000000pt" viewBox="0 0 752.000000 752.000000"
 preserveAspectRatio="xMidYMid meet">

<g transform="translate(0.000000,752.000000) scale(0.100000,-0.100000)"
fill="#000000" stroke="none">
<path d="M3570 5945 c-216 -43 -392 -145 -581 -334 -330 -331 -505 -789 -514
-1345 l-3 -179 -29 -15 c-124 -63 -351 -226 -484 -348 -412 -377 -613 -813
-558 -1209 25 -180 98 -366 192 -491 153 -202 386 -341 670 -403 440 -95 996
4 1406 252 l93 57 72 -44 c165 -100 371 -191 557 -245 748 -216 1393 -24 1639
490 188 394 91 946 -246 1399 -161 217 -428 442 -676 570 l-68 35 0 155 c0
329 -64 617 -200 897 -200 415 -508 680 -882 758 -85 18 -298 18 -388 0z m389
-60 c469 -100 854 -557 980 -1165 33 -160 44 -267 44 -450 -1 -382 -76 -699
-252 -1055 -132 -267 -346 -575 -579 -834 l-49 -54 -49 33 c-69 47 -160 116
-221 169 l-52 44 62 69 c371 414 625 863 701 1238 65 325 43 684 -60 972 -108
300 -321 544 -542 620 -55 19 -87 23 -182 23 -126 0 -176 -15 -298 -86 -74
-44 -215 -185 -275 -276 -139 -210 -228 -485 -245 -756 l-7 -109 -100 -33
c-81 -26 -189 -68 -292 -112 -10 -4 -13 21 -13 104 0 385 103 781 277 1063
286 464 718 687 1152 595z m-36 -469 c286 -101 516 -453 582 -891 8 -55 15
-124 15 -154 0 -47 -2 -52 -17 -46 -35 13 -300 54 -418 64 -294 26 -629 0
-958 -74 -60 -14 -115 -25 -121 -25 -14 0 -4 154 19 280 78 422 322 765 610
856 70 22 210 17 288 -10z m332 -1105 c72 -11 162 -27 201 -36 l71 -16 -4 -72
c-4 -85 -20 -211 -34 -283 l-10 -52 -52 14 c-333 90 -743 92 -1157 8 -441 -91
-747 -246 -1032 -522 -349 -338 -460 -658 -331 -952 75 -170 233 -281 473
-330 141 -29 399 -25 559 10 119 25 274 77 375 125 l69 33 81 -70 c45 -39 118
-100 164 -136 58 -46 79 -68 70 -74 -125 -83 -353 -186 -513 -232 -505 -144
-974 -102 -1315 119 -308 198 -471 589 -405 967 73 419 434 869 943 1173 288
172 720 300 1167 345 149 15 531 4 680 -19z m1005 -371 c260 -175 465 -391
603 -636 339 -603 249 -1228 -219 -1520 -520 -324 -1425 -174 -2034 336 -341
286 -549 531 -743 875 -95 169 -237 513 -237 575 0 12 31 32 103 68 92 45 235
102 257 102 4 0 18 -33 30 -72 152 -505 474 -961 908 -1288 232 -175 518 -296
811 -345 143 -24 404 -17 511 14 219 65 359 201 400 393 20 89 8 283 -24 393
-37 124 -132 313 -210 416 -86 114 -244 263 -360 339 -93 62 -94 63 -85 94 15
48 59 307 59 342 0 17 3 34 7 37 8 9 113 -49 223 -123z m-1205 -70 c183 -17
405 -62 405 -83 0 -6 -16 -58 -36 -116 -76 -226 -241 -516 -429 -756 -87 -111
-246 -295 -255 -295 -11 0 -164 163 -226 240 -132 164 -243 343 -328 530 -57
124 -131 342 -124 362 11 26 356 99 558 117 138 12 309 12 435 1z m938 -306
c140 -88 301 -240 397 -376 73 -102 156 -277 186 -394 35 -133 37 -288 5 -386
-104 -323 -565 -427 -1101 -248 -96 31 -302 119 -318 135 -2 2 44 60 102 128
217 253 373 479 497 722 75 146 164 356 176 416 3 16 7 29 9 29 3 0 23 -12 47
-26z m-2386 -123 c121 -372 343 -741 646 -1074 44 -48 78 -89 76 -92 -13 -12
-186 -80 -269 -104 -217 -65 -491 -84 -665 -46 -285 61 -434 199 -476 441 -38
217 79 465 340 724 113 112 282 248 311 250 3 0 20 -45 37 -99z"/>
</g>
</svg>
