<?xml version="1.0" encoding="utf-8"?>
<!-- Svg Vector Icons : http://www.onlinewebfonts.com/icon -->
<!DOCTYPE svg PUBLIC "-//W3C//DTD SVG 1.1//EN" "http://www.w3.org/Graphics/SVG/1.1/DTD/svg11.dtd">
<svg version="1.1" xmlns="http://www.w3.org/2000/svg" xmlns:xlink="http://www.w3.org/1999/xlink" x="0px" y="0px" viewBox="0 0 1000 1000" enable-background="new 0 0 1000 1000" xml:space="preserve">
<metadata> Svg Vector Icons : http://www.onlinewebfonts.com/icon </metadata>
<g><g transform="translate(0.000000,494.000000) scale(0.100000,-0.100000)"><path d="M4910.7,4801.1c-31.7-19.8-289.6-267.8-569.4-551.5c-503.9-505.9-511.8-515.8-511.8-595.1c0-129,113.1-200.4,224.2-142.8c23.8,11.9,210.3,188.5,416.6,390.8l371,371V2918.5V1563.6l49.6-47.6c29.8-31.7,71.4-49.6,109.1-49.6c37.7,0,79.4,17.9,109.1,49.6l49.6,47.6v1354.9v1354.9l372.9-371c204.3-202.3,390.8-378.9,414.6-390.8c63.5-31.7,113.1-27.8,172.6,19.8c41.7,31.7,51.6,57.5,51.6,123c0,79.4-7.9,89.3-519.8,605.1c-287.7,287.7-545.5,535.6-575.3,551.5C5005.9,4846.8,4982.1,4846.8,4910.7,4801.1z"/><path d="M651.5,557.8C141.7,49.9,100,2.3,100-61.2c0-63.5,41.7-111.1,551.5-619c497.9-499.9,557.5-551.5,615-551.5c35.7,0,83.3,7.9,103.2,19.8c47.6,25.8,83.3,128.9,59.5,184.5c-7.9,23.8-182.5,208.3-384.9,410.7c-202.3,202.3-369,372.9-369,380.9c0,9.9,607,15.9,1349,15.9h1351l47.6,49.6c65.5,63.5,65.5,154.7,0,218.2l-47.6,49.6h-1351c-741.9,0-1349,5.9-1349,15.9c0,7.9,166.6,178.5,369,380.9c202.3,202.4,376.9,386.8,384.9,410.6c23.8,55.5-11.9,158.7-59.5,184.5c-19.8,11.9-67.4,19.8-103.2,19.8C1208.9,1109.3,1149.4,1057.7,651.5,557.8z"/><path d="M8610.5,1069.6c-39.7-39.7-47.6-71.4-39.7-148.8c2-21.8,170.6-208.3,378.9-416.6c206.3-208.3,375-384.9,375-392.8c0-7.9-607-13.9-1349-13.9h-1351l-47.6-49.6c-31.7-29.8-49.6-71.4-49.6-109.1c0-37.7,17.9-79.3,49.6-109.1l47.6-49.6h1351c741.9,0,1349-6,1349-13.9c0-7.9-168.6-184.5-375-392.8c-208.3-208.3-376.9-394.8-378.9-416.6c-11.9-123,41.7-188.5,152.8-188.5c71.4,0,101.2,25.8,624.9,551.5c509.8,507.9,551.5,555.5,551.5,619c0,63.5-41.7,111.1-551.5,619c-523.7,525.7-553.5,551.5-624.9,551.5C8676,1109.3,8636.3,1095.4,8610.5,1069.6z"/><path d="M4823.4,581.6c-136.9-35.7-214.3-85.3-317.4-196.4c-127-136.9-166.6-246-168.6-446.4c0-144.8,7.9-184.5,53.6-281.7c198.4-406.7,724.1-513.8,1053.4-212.3c158.7,144.8,218.2,277.7,220.2,494c0,144.8-7.9,184.5-55.5,281.7c-79.4,162.7-238.1,301.5-404.7,353.1C5053.6,619.3,4972.2,621.3,4823.4,581.6z M5204.3,210.6c198.4-150.8,168.6-472.2-57.5-579.3c-103.2-49.6-261.9-33.8-351.1,35.7c-196.4,148.8-168.6,466.2,49.6,577.3C4944.5,293.9,5115.1,278.1,5204.3,210.6z"/><path d="M4890.9-1638.3l-49.6-47.6v-1355v-1354.9l-371,371c-206.3,202.4-392.8,378.9-416.6,390.8c-63.5,31.7-113.1,27.7-172.6-19.8c-41.7-31.8-51.6-57.5-51.6-123c0-81.3,7.9-89.3,529.7-613c291.6-291.6,553.5-539.6,585.2-553.4c41.7-17.9,69.4-17.9,111.1,0c31.7,13.9,293.6,261.8,585.2,553.4c521.7,523.7,529.7,531.7,529.7,613c0,128.9-113.1,200.4-224.2,142.9c-23.8-11.9-210.3-188.5-414.6-390.8l-372.9-371v1354.9v1355l-49.6,47.6c-29.8,31.7-71.4,49.6-109.1,49.6C4962.3-1588.7,4920.6-1606.6,4890.9-1638.3z"/></g></g>
</svg>