<?xml version="1.0" standalone="no"?>
<!DOCTYPE svg PUBLIC "-//W3C//DTD SVG 20010904//EN"
 "http://www.w3.org/TR/2001/REC-SVG-20010904/DTD/svg10.dtd">
<svg version="1.0" xmlns="http://www.w3.org/2000/svg"
 width="936.000000pt" height="936.000000pt" viewBox="0 0 936.000000 936.000000"
 preserveAspectRatio="xMidYMid meet">

<g transform="translate(0.000000,936.000000) scale(0.100000,-0.100000)"
fill="#000000" stroke="none">
<path d="M2915 7940 c-163 -21 -331 -62 -445 -106 -192 -75 -473 -235 -578
-328 -20 -18 -45 -37 -55 -42 -74 -40 -436 -424 -527 -558 -19 -29 -167 -252
-190 -286 -16 -24 -49 -83 -111 -193 -72 -128 -194 -395 -249 -542 -12 -33
-33 -87 -46 -120 -13 -33 -51 -145 -85 -249 -47 -141 -60 -193 -52 -205 9 -14
52 -16 389 -19 399 -3 417 -1 430 42 11 35 64 175 112 291 24 61 51 127 58
148 18 49 174 354 224 437 22 36 43 74 48 85 15 32 119 184 170 249 62 78 294
310 361 361 216 163 477 253 736 254 156 0 235 -19 378 -90 90 -46 113 -63
212 -163 61 -61 131 -140 155 -175 57 -86 175 -318 207 -406 101 -285 136
-394 169 -527 26 -107 45 -183 60 -243 8 -33 19 -81 24 -107 5 -27 11 -52 14
-56 3 -5 10 -33 15 -63 6 -30 17 -88 26 -129 21 -96 42 -204 60 -305 8 -44 19
-100 25 -125 15 -71 40 -198 55 -285 8 -44 21 -114 29 -155 8 -41 22 -111 30
-155 9 -44 20 -100 26 -125 6 -25 17 -79 25 -120 8 -41 21 -104 29 -140 8 -36
21 -96 29 -135 9 -38 23 -99 32 -135 10 -36 21 -81 26 -100 19 -82 39 -159 55
-210 9 -30 22 -77 29 -105 21 -80 133 -413 166 -495 59 -143 131 -296 195
-415 77 -143 96 -173 226 -355 42 -59 265 -287 318 -325 22 -16 63 -47 89 -67
104 -80 320 -178 493 -222 31 -8 66 -19 77 -25 11 -6 39 -11 63 -11 24 0 65
-7 92 -15 64 -19 445 -22 479 -3 12 7 49 15 82 19 194 20 467 127 664 260 52
35 110 75 130 88 46 31 273 260 306 309 14 20 39 55 56 77 196 260 384 660
485 1030 8 33 22 78 29 100 7 22 21 76 30 120 10 44 21 94 27 111 17 61 52
263 69 409 5 50 14 104 19 120 5 17 12 90 16 163 l7 132 -389 -2 -389 -3 -7
-75 c-17 -182 -28 -278 -38 -311 -5 -20 -10 -48 -10 -62 0 -14 -4 -36 -10 -49
-5 -13 -14 -54 -19 -93 -5 -38 -17 -98 -25 -132 -9 -35 -22 -89 -30 -120 -59
-240 -185 -566 -266 -682 -9 -14 -35 -53 -56 -86 -62 -95 -93 -133 -184 -225
-166 -165 -268 -223 -525 -300 -49 -14 -245 -21 -325 -11 -240 30 -396 108
-572 288 -143 146 -242 302 -343 543 -15 36 -33 79 -40 95 -12 27 -105 311
-140 425 -7 25 -27 104 -44 175 -18 72 -34 139 -37 150 -9 34 -34 147 -44 197
-5 27 -11 52 -14 56 -3 5 -10 33 -15 63 -12 65 -37 196 -58 299 -8 41 -20 109
-28 150 -7 41 -18 98 -24 125 -6 28 -18 86 -27 130 -8 44 -22 114 -30 155 -14
69 -25 129 -53 295 -6 33 -15 76 -20 95 -5 19 -17 71 -26 115 -9 44 -21 96
-25 115 -5 19 -23 98 -40 175 -17 77 -36 155 -42 174 -6 19 -21 76 -33 125
-43 170 -101 366 -127 426 -6 14 -21 59 -35 100 -64 201 -239 563 -354 734
-41 60 -85 126 -98 145 -13 20 -87 99 -165 176 -99 99 -171 160 -241 207 -99
65 -206 123 -255 139 -14 4 -54 18 -90 31 -36 14 -101 32 -145 42 -44 10 -93
22 -110 27 -39 13 -392 20 -470 9z"/>
</g>
</svg>
