<?xml version="1.0" encoding="iso-8859-1"?>
<!-- Uploaded to: SVG Repo, www.svgrepo.com, Generator: SVG Repo Mixer Tools -->
<svg fill="#000000" height="800px" width="800px" version="1.1" id="Layer_1" xmlns="http://www.w3.org/2000/svg" xmlns:xlink="http://www.w3.org/1999/xlink" 
	 viewBox="0 0 512 512" xml:space="preserve">
<g transform="translate(1 1)">
	<g>
		<g>
			<path d="M255-1C114.2-1-1,114.2-1,255s115.2,256,256,256s256-115.2,256-256S395.8-1,255-1z M255,493.933
				c-131.413,0-238.933-107.52-238.933-238.933S123.587,16.067,255,16.067S493.933,123.587,493.933,255S386.413,493.933,255,493.933
				z"/>
			<path d="M285.544,69.783l-3.237-0.809c-4.267-0.853-7.68-1.707-11.947-1.707c-9.387-0.853-20.48-0.853-29.867,0
				c-4.267,0.853-7.68,0.853-11.947,1.707l-7.68,0.853v0.581c-44.928,8.34-84.365,32.817-112.03,67.137l-0.61-0.305l-4.267,5.973
				c-8.533,11.947-16.213,23.893-21.333,36.693l-2.56,6.827l0.099,0.069c-8.32,21.165-12.899,44.172-12.899,68.198
				c0,19.582,3.045,38.485,8.673,56.269l-0.14,0.051l2.56,7.68c4.267,11.093,9.387,22.187,15.36,32.427
				c0,1.707,0.853,2.56,1.707,3.413c1.707,2.56,4.267,5.973,5.973,8.533l4.267,5.12l0.046-0.02
				c32.395,42.456,82.406,70.836,138.871,73.963c3.281,0.289,6.845,0.296,10.416,0.296s7.134-0.007,10.416-0.296
				c55.774-3.089,105.255-30.814,137.678-72.409l0.386,0.172l4.267-5.973c2.56-2.56,4.267-5.973,5.973-8.533
				c0-0.352,0.15-0.852,0.381-1.375c0.388-0.617,0.779-1.231,1.16-1.853c0.055-0.062,0.11-0.13,0.166-0.186
				c0.341-0.584,0.669-1.181,1.004-1.77c16.688-28.026,26.302-60.697,26.302-95.51C442.733,162.142,374.403,84.482,285.544,69.783z
				 M272.067,348.867v75.943c-0.013,0.001-0.027,0.002-0.04,0.004c-0.865,0-2.532,0-3.373,0c-9.387,0.853-17.92,0.853-27.307,0
				c-0.427,0-1.067,0-1.707,0v-75.947c0-12.8-5.973-23.893-17.067-30.72s-23.893-6.827-34.987-1.707l-74.24,31.573
				c-0.853-0.853-0.853-1.707-1.707-2.56l-1.707-2.56c-4.267-6.827-7.68-13.653-11.093-21.333l68.267-25.6l0.853-0.853
				c9.387-5.12,16.213-16.213,17.92-29.013c1.707-12.8-1.707-25.6-10.24-34.133l-74.211-51.18
				c3.588-7.368,7.689-14.446,12.26-21.182l66.218,33.109c11.093,7.68,27.307,7.68,40.107,0.853
				c11.093-6.827,17.92-17.067,17.92-29.867V85.19c0.013-0.001,0.027-0.002,0.04-0.004c0.865,0,2.532,0,3.373,0
				c9.387-0.853,18.773-0.853,27.307,0c0.841,0,2.509,0,3.373,0c0.013,0.001,0.027,0.002,0.04,0.004v79.357
				c0,11.093,5.12,21.333,14.507,27.307c11.947,6.827,29.013,7.68,42.667,1.707l66.56-34.133
				c4.267,6.827,8.533,14.507,11.947,21.333l-72.533,50.347l-0.853,0.853c-8.533,7.68-11.947,20.48-10.24,34.133
				c1.707,12.8,8.533,23.893,17.92,29.013l69.973,25.6c-3.413,7.68-6.827,14.507-11.093,21.333l-1.707,2.56
				c-0.853,0.853-0.853,1.707-1.707,2.56l-73.387-30.72c-11.093-5.973-23.893-5.12-34.987,1.707
				C278.893,324.973,272.067,336.067,272.067,348.867z M349.72,281.453c-5.12-3.413-8.533-9.387-9.387-16.213
				c-0.853-7.68,0.853-15.36,5.12-19.627l70.011-48.579c6.595,18.118,10.202,37.641,10.202,57.966
				c0,17.901-2.801,35.178-7.973,51.423L349.72,281.453z M385.824,145.722L321.56,178.2c-7.68,4.267-18.773,3.413-25.6-0.853
				c-4.267-2.56-6.827-6.827-6.827-12.8V87.788C327.598,95.676,361.447,116.614,385.824,145.722z M220.867,87.788v75.906
				c0,7.68-4.267,11.947-8.533,14.507c-7.68,3.413-17.067,3.413-23.893-0.853l-63.962-31.981
				C148.832,116.444,182.56,95.643,220.867,87.788z M84.333,255c0-20.403,3.632-39.999,10.276-58.176l69.084,47.936
				c4.267,4.267,5.973,11.947,5.12,19.627c-1.707,7.68-4.267,13.653-9.387,16.213l-67.455,24.779
				C87.011,289.439,84.333,272.517,84.333,255z M121.991,361.612l70.716-29.812c5.973-3.413,12.8-2.56,18.773,0.853
				c5.973,3.413,9.387,9.387,9.387,16.213v73.346C181.238,414.086,146.51,392.106,121.991,361.612z M289.133,422.212v-73.346
				c0-6.827,3.413-12.8,8.533-16.213c5.973-3.413,12.8-4.267,19.627-0.853l69.71,31.059
				C362.545,392.706,328.221,414.197,289.133,422.212z"/>
			<path d="M255,212.333c-23.893,0-42.667,18.773-42.667,42.667c0,23.893,18.773,42.667,42.667,42.667
				c23.893,0,42.667-18.773,42.667-42.667C297.667,231.107,278.893,212.333,255,212.333z M255,280.6
				c-14.507,0-25.6-11.093-25.6-25.6c0-14.507,11.093-25.6,25.6-25.6c14.507,0,25.6,11.093,25.6,25.6
				C280.6,269.507,269.507,280.6,255,280.6z"/>
		</g>
	</g>
</g>
</svg>